<?xml version="1.0" standalone="no"?>
<!DOCTYPE svg PUBLIC "-//W3C//DTD SVG 1.1//EN" "http://www.w3.org/Graphics/SVG/1.1/DTD/svg11.dtd" >
<svg xmlns="http://www.w3.org/2000/svg">
<metadata></metadata>
<defs>
<font id="barkentina_testregular" horiz-adv-x="729" >
<font-face units-per-em="2048" ascent="1536" descent="-512" />
<missing-glyph horiz-adv-x="655" />
<glyph horiz-adv-x="2048" />
<glyph horiz-adv-x="2048" />
<glyph unicode="&#xd;" horiz-adv-x="2048" />
<glyph unicode=" "  horiz-adv-x="655" />
<glyph unicode="&#x09;" horiz-adv-x="655" />
<glyph unicode="&#xa0;" horiz-adv-x="655" />
<glyph unicode="!" horiz-adv-x="327" d="M49 90q0 49 34.5 78t82.5 29q56 0 88.5 -28t32.5 -79q0 -48 -34 -74t-87 -26q-47 0 -82 27.5t-35 72.5zM68 1415q15 29 73 29q60 0 91.5 -47t31.5 -113q-3 -359 -37 -786q-3 -33 -7.5 -54.5t-17.5 -48.5t-40 -41t-68 -14q17 91 17 262q0 178 -1 272t-4.5 227t-13 208 t-24.5 106z" />
<glyph unicode="&#x22;" horiz-adv-x="679" d="M86 1356q0 41 27.5 68.5t81.5 27.5q45 0 71.5 -27.5t26.5 -70.5q0 -28 -14 -117q-35 -255 -37 -301q0 -20 -16.5 -32.5t-37.5 -12.5q-20 0 -34.5 12t-14.5 33q-3 57 -28 202.5t-25 217.5zM383 1356q0 41 27.5 68.5t81.5 27.5q45 0 71.5 -27.5t26.5 -70.5q0 -21 -15 -117 q-33 -244 -36 -301q-1 -20 -17 -32.5t-37 -12.5q-20 0 -34.5 12t-14.5 33q-3 60 -28 201t-25 219z" />
<glyph unicode="#" horiz-adv-x="1185" d="M-12 346q8 80 41 115q33 31 127 31h120l78 329h-198q-39 0 -81 -7t-65 -14l-22 -7q8 81 41 116q33 29 127 29h223l113 477h129l-113 -477h295l110 477h129l-108 -477h102q37 0 79.5 13t66.5 25l24 13q0 -4 -0.5 -10t-3 -23.5t-7.5 -33t-15.5 -35t-25 -33.5t-37.5 -23.5 t-52 -9.5h-158l-78 -329h195q37 0 79.5 13t66.5 25l24 13q0 -4 -0.5 -10t-3 -23.5t-7.5 -33.5t-15.5 -35.5t-25 -34t-37.5 -24t-52 -9.5h-250l-92 -410h-129l92 410h-295l-92 -410h-129l92 410h-94q-39 0 -81 -6.5t-65 -13.5zM406 492h294l78 329h-295z" />
<glyph unicode="$" horiz-adv-x="831" d="M-2 258q0 33 10.5 58t25 38t29 21t25.5 10l10 2q2 -12 7 -31.5t28.5 -69t56 -88t94 -69.5t138.5 -31q128 0 197 63.5t69 141.5q0 59 -36 106.5t-93 80.5t-126 65t-138.5 69.5t-126.5 83t-93 116t-36 159.5q0 118 100 208.5t211 90.5v180h135v-180q121 0 213.5 -68.5 t92.5 -166.5q0 -68 -44 -109t-88 -41q0 82 -19.5 141t-54.5 91t-76.5 46.5t-92.5 14.5q-94 0 -164 -59.5t-70 -147.5q0 -61 35 -110t90.5 -84t123 -67.5t135.5 -70t123.5 -81.5t90.5 -111.5t35 -151.5q0 -117 -93 -213t-237 -96v-215h-135q-2 131 -2 217q-134 0 -242 80.5 t-108 177.5z" />
<glyph unicode="%" horiz-adv-x="1613" d="M43 918q0 54 9 104t31.5 101t57 88.5t90.5 61t127 23.5t126.5 -22.5t91 -59.5t58.5 -87t32.5 -101.5t9.5 -107.5q0 -72 -18 -136.5t-54 -119.5t-99.5 -88t-146.5 -33q-81 0 -143.5 34t-99 90t-54.5 120.5t-18 132.5zM172 918q0 -76 15.5 -135.5t59 -102.5t111.5 -43 q66 0 109.5 42.5t60.5 103t17 135.5q0 284 -187 284q-55 0 -93.5 -25.5t-57.5 -69.5t-27 -89.5t-8 -99.5zM401 0l662 1311h131l-659 -1311h-134zM924 375q0 54 9 105t32 102t58 89t91 61.5t127 23.5q70 0 125.5 -23t91 -60t59 -87.5t33 -102.5t9.5 -108q0 -71 -18 -135 t-54 -119.5t-99.5 -88t-146.5 -32.5q-81 0 -144 34t-99.5 89.5t-55 120t-18.5 131.5zM1053 375q0 -76 16 -135.5t60 -102.5t112 -43q96 0 141 81.5t45 199.5q0 284 -186 284q-55 0 -94 -25.5t-58.5 -69t-27.5 -89.5t-8 -100z" />
<glyph unicode="&#x26;" horiz-adv-x="1693" d="M84 442q0 80 28 145.5t74 106.5t98 65.5t107 31.5q-125 57 -176 127.5t-51 171.5q0 41 11 81.5t39 83t71.5 74t114.5 52t161 20.5q191 0 282 -71.5t91 -182.5q0 -57 -40.5 -94t-82.5 -37q0 82 -22.5 141t-61 89t-79.5 43.5t-87 13.5q-97 0 -168 -60t-71 -153 q0 -50 19.5 -89t50.5 -63.5t69 -44t76 -35t69 -31t50.5 -38t19.5 -50.5q0 -48 -35 -90q-41 53 -131 53q-110 0 -188 -75.5t-78 -186.5q0 -74 31 -136.5t78.5 -102.5t108 -67.5t118 -39.5t108.5 -12q223 0 349 102.5t126 255.5q4 53 4 246q0 44 -16 58t-59 14q-95 0 -147 -35 t-52 -102q0 -58 51 -88.5t96 -30.5q0 -4 -1 -10.5t-7.5 -23t-16 -29t-29 -23t-44.5 -10.5q-78 0 -130 62.5t-52 158.5q0 37 14.5 73t48.5 73t103.5 60t165.5 23h311q85 0 138.5 31t72.5 114q42 0 62 -31.5t20 -62.5q0 -53 -40 -99t-116 -46q-20 0 -56 1t-65 1 q-32 0 -53.5 -12.5t-33.5 -31t-18 -56.5t-7.5 -71t-1.5 -91q0 -250 -167.5 -383t-449.5 -133q-160 0 -296 52.5t-222 158.5t-86 245z" />
<glyph unicode="'" horiz-adv-x="245" d="M14 1356q0 41 28.5 68.5t82.5 27.5q45 0 71.5 -27.5t26.5 -70.5q0 -28 -14 -117q-35 -255 -37 -301q-1 -20 -17 -32.5t-36 -12.5t-34.5 12t-14.5 33q-5 79 -41 309q-15 103 -15 111z" />
<glyph unicode="(" horiz-adv-x="598" d="M-12 569q0 263 110.5 510.5t319.5 421.5h-2q92 76 129 76q26 0 26 -16q0 -17 -77 -117q-111 -135 -182 -259t-113.5 -280.5t-42.5 -335.5q0 -246 86.5 -473.5t249.5 -390.5q49 -51 79 -74q3 -3 9 -7t8 -6t5.5 -5t5 -5.5t2.5 -5t1 -5.5q0 -4 -16.5 -14.5t-22.5 -10.5 q-40 0 -145 72q-199 163 -314.5 411t-115.5 514z" />
<glyph unicode=")" horiz-adv-x="598" d="M-8 -403q0 6 31 34q30 23 79 74q163 163 249.5 390.5t86.5 473.5q0 179 -42.5 335.5t-113.5 280.5t-182 259q-77 96 -77 117q0 16 26 16q37 0 129 -76h-2q209 -174 319.5 -421.5t110.5 -510.5q0 -266 -115.5 -514t-314.5 -411q-105 -72 -145 -72q-6 0 -22.5 10.5 t-16.5 14.5z" />
<glyph unicode="*" horiz-adv-x="698" d="M-12 1225q0 31 25 54.5t57 23.5q40 0 233 -148q-35 205 -35 221q0 28 21.5 47t60.5 19q34 0 57 -19.5t23 -46.5q0 -10 -6.5 -48t-15.5 -90t-13 -83q182 148 219 148q39 0 63.5 -23t24.5 -55q0 -33 -38 -56q-69 -36 -236 -94q102 -35 215 -82q21 -8 36 -24.5t15 -36.5 q0 -33 -23.5 -55.5t-60.5 -22.5q-34 0 -215 145l13 -71q22 -125 22 -144q0 -37 -22 -57t-60 -20q-28 0 -54 21.5t-26 55.5q0 10 35 215q-147 -115 -168 -127q-26 -16 -45 -16q-35 0 -58.5 19.5t-23.5 58.5q0 36 83 74.5t181 66.5q-66 22 -106 36.5t-86.5 35t-69 40 t-22.5 38.5z" />
<glyph unicode="+" horiz-adv-x="968" d="M-41 524q10 80 53 121q37 39 140 39h254v268q0 84 47 135q8 8 41.5 17.5t63.5 14.5l30 5q-27 -76 -27 -172v-268h260q34 0 75.5 11t65.5 23l25 11q0 -7 -1 -18.5t-9 -41t-23 -52.5t-47.5 -41.5t-77.5 -18.5h-268v-283q0 -39 -21 -67.5t-50.5 -41t-59.5 -20t-51 -7.5 l-21 -1q5 6 13 17t21.5 48.5t13.5 80.5v274h-254q-39 0 -87.5 -8.5t-76.5 -16.5z" />
<glyph unicode="," horiz-adv-x="372" d="M59 -145q29 0 69 35.5t40 82.5q0 36 -33 54q-18 11 -29.5 20.5t-21.5 29.5t-10 46q0 39 31 68.5t90 29.5q63 0 92.5 -38.5t29.5 -94.5q0 -41 -12.5 -87.5t-35.5 -91t-63 -73.5t-89 -29q-19 0 -33.5 12t-19.5 24z" />
<glyph unicode="-" d="M59 399q0 9 1 23t11.5 45.5t28.5 48.5q33 33 140 33h280q34 0 75.5 8.5t66.5 16.5l24 8q0 -6 -1 -16t-8 -35.5t-20 -45t-41.5 -35.5t-66.5 -16h-330q-37 0 -77 -9t-62 -17z" />
<glyph unicode="." horiz-adv-x="364" d="M63 90q0 49 34.5 79t82.5 30q56 0 88.5 -29t32.5 -80q0 -48 -34 -74t-87 -26q-47 0 -82 27.5t-35 72.5z" />
<glyph unicode="/" horiz-adv-x="708" d="M-20 -152l593 1692q12 29 40 42t57 13q11 0 24.5 -2t21.5 -4l7 -2l-584 -1657q-18 -50 -45 -66t-67 -16h-47z" />
<glyph unicode="0" horiz-adv-x="1110" d="M66 659q0 81 10 158t31.5 156.5t59.5 145.5t89.5 118t126 81.5t164.5 29.5t165 -28.5t127 -79t91 -116t61 -144.5t32.5 -158t10.5 -163q0 -101 -16 -195t-53 -182.5t-92 -153.5t-139 -104.5t-187 -39.5q-83 0 -154 28.5t-123 78t-91.5 114.5t-64 141.5t-36.5 155 t-12 157.5zM219 659q0 -110 17 -205.5t53.5 -177.5t102.5 -130t155 -48q88 0 154.5 48t103.5 130t54.5 178t17.5 205q0 572 -330 572q-76 0 -134.5 -35t-94.5 -90.5t-59 -132.5t-31.5 -153.5t-8.5 -160.5z" />
<glyph unicode="1" horiz-adv-x="643" d="M-18 1143q52 0 106 27.5t94 61t99 64t118 35.5h179v-61h-41q-43 0 -76 -35t-33 -90v-952q0 -48 32 -90t97 -42h88v-61h-582v61h89q43 0 74 26.5t42 54.5t11 51v911q0 59 -7 59q-20 0 -96.5 -41t-118.5 -41q-41 0 -58 14.5t-17 47.5z" />
<glyph unicode="2" horiz-adv-x="1050" d="M88 29q0 72 36 146t93.5 139.5t127 132.5t139.5 135t127.5 135.5t93.5 146t36 156.5q0 94 -57.5 162.5t-163.5 68.5q-77 0 -135.5 -34.5t-91 -91t-48.5 -120t-16 -131.5q-50 0 -86.5 53.5t-36.5 129.5q0 35 13 73t44.5 79t77.5 73t118.5 53t160.5 21q186 0 286.5 -86 t100.5 -250q0 -56 -14.5 -110.5t-44.5 -105.5t-59.5 -93t-76.5 -90t-77.5 -76t-79.5 -72q-106 -94 -180 -179t-115 -183q61 -1 179 -12t190 -11q117 0 178 51t61 166q58 0 92.5 -37.5t34.5 -93.5q0 -20 -6 -44t-22.5 -52.5t-41 -51t-66 -38t-93.5 -15.5q-56 0 -173 13.5 t-179 13.5q-89 0 -167 -8.5t-111 -17.5l-34 -9q-14 25 -14 64z" />
<glyph unicode="3" horiz-adv-x="980" d="M76 1044q0 49 25 99.5t71.5 94.5t125 71.5t175.5 27.5q90 0 159 -18.5t110.5 -49t68 -73t36 -85.5t9.5 -93q0 -96 -61 -187.5t-166 -142.5q56 -7 107 -29.5t94 -61.5t68.5 -100t25.5 -137q0 -50 -16.5 -103t-52.5 -103.5t-86.5 -90t-124 -64t-159.5 -24.5 q-187 0 -293 59.5t-106 137.5q0 33 12 57.5t29 36t34.5 18.5t29.5 8l12 1q0 -97 90 -163.5t207 -66.5q116 0 194 82t78 215q0 250 -287 250q-26 0 -116 -8q-25 0 -45.5 15.5t-20.5 41.5q0 21 21 62q168 0 276.5 77.5t108.5 219.5q0 96 -66.5 156.5t-169.5 60.5 q-276 0 -276 -346q-49 0 -85 38.5t-36 116.5z" />
<glyph unicode="4" horiz-adv-x="1036" d="M-12 465q0 18 32 55q116 127 206 279.5t129.5 261.5t39.5 166q0 77 -35 112l4 2q5 2 12 4.5t15.5 4.5t19 4t19.5 2q46 0 80.5 -34t34.5 -120q0 -127 -271 -532q-11 -16 -37.5 -50.5t-39.5 -56t-13 -37.5q0 -45 131 -45h285v340q0 228 129 228q26 0 41 -12t16 -24l2 -12 q-2 0 -5.5 -1t-13 -9.5t-16.5 -24t-12.5 -50t-5.5 -80.5v-355h142q37 0 79.5 9.5t66.5 19.5l24 10q0 -5 -1 -13.5t-9 -30.5t-21.5 -39t-43 -30.5t-69.5 -13.5h-168v-233q0 -36 23 -67.5t71 -31.5h68v-61h-502v61h56q81 0 115 35.5t34 89.5v207h-440q-172 0 -172 72z" />
<glyph unicode="5" horiz-adv-x="927" d="M33 180q0 41 30.5 69t61.5 36l31 8q0 -96 72.5 -161.5t191.5 -65.5q134 0 223.5 104.5t89.5 249.5q0 138 -82.5 225.5t-218.5 87.5q-147 0 -252 -94q-27 0 -51.5 20t-24.5 52q0 9 21.5 86t43 188.5t21.5 204.5q0 94 -12 137h459q51 0 98 12.5t69 24.5l21 12 q0 -4 -0.5 -10.5t-3.5 -25t-8.5 -35t-18 -37t-28.5 -35.5t-42.5 -25t-59.5 -10h-326q-13 -102 -30 -178.5t-34.5 -135.5t-23.5 -89q105 41 203 41q99 0 176 -23t126 -60.5t80.5 -91t44.5 -109.5t13 -120q0 -80 -30 -159t-86 -146.5t-149.5 -109.5t-207.5 -42 q-85 0 -153 12.5t-111 33t-71.5 48t-40 55t-11.5 56.5z" />
<glyph unicode="6" horiz-adv-x="1036" d="M53 598q0 139 41 270t111.5 232.5t174.5 163t222 61.5q149 0 218 -44.5t69 -104.5q0 -62 -55 -107q-1 6 -3.5 16.5t-17.5 37t-37.5 47t-68.5 37t-105 16.5q-115 0 -206.5 -81t-143 -224t-51.5 -320q0 -130 28.5 -236t76 -172t106.5 -101.5t123 -35.5q58 0 111.5 24.5 t96.5 70t69 117t26 157.5q0 155 -66.5 235t-183.5 80q-71 0 -136.5 -37.5t-105.5 -87.5q-20 20 -20 74q0 46 66 91.5t192 45.5q193 0 291 -111.5t98 -289.5q0 -89 -31.5 -171t-88.5 -146t-143.5 -102t-189.5 -38q-206 0 -336.5 170.5t-130.5 462.5z" />
<glyph unicode="7" horiz-adv-x="952" d="M16 1063q0 66 27.5 111t78.5 68t109 32.5t134 9.5q54 0 152.5 -6t154.5 -6q93 0 156.5 8t80.5 16l17 7q0 -42 -49 -146t-119 -237.5t-139.5 -280t-118.5 -304.5t-49 -278q0 -24 9.5 -49.5t19.5 -39.5l9 -13q-41 -8 -59 -8q-147 0 -147 135q0 82 33 180t100 240 q9 20 95 185.5t133.5 282.5t47.5 187q0 35 -227 35q-326 0 -326 -201q0 -43 4 -61q-53 0 -90 40t-37 93z" />
<glyph unicode="8" horiz-adv-x="1024" d="M57 301q0 202 316 363q-102 47 -164.5 106t-86.5 118.5t-24 129.5q0 54 27 109t77 103t130.5 78.5t177.5 30.5q189 0 294 -84t105 -223q0 -55 -19.5 -102.5t-57.5 -85.5t-78 -65.5t-95 -57.5l-41 -27q166 -66 255.5 -148.5t89.5 -203.5q0 -152 -128.5 -264.5 t-324.5 -112.5q-201 0 -327 94t-126 242zM205 313q0 -124 84 -192t221 -68q75 0 133 22.5t89.5 54.5t51.5 73t25.5 70.5t5.5 54.5q0 184 -332 299q-22 -12 -44.5 -25t-68.5 -47t-79 -67.5t-59.5 -81t-26.5 -93.5zM246 1004q0 -56 21 -99.5t62.5 -75.5t86 -54t108.5 -44 q26 15 58 38.5t76 62.5t73 88.5t29 97.5q0 74 -40 128.5t-95 78.5t-115 24q-107 0 -185.5 -70t-78.5 -175z" />
<glyph unicode="9" horiz-adv-x="1052" d="M59 883q0 78 31.5 156t88 142t144 104t189.5 40q467 0 467 -639q0 -173 -41 -313t-111 -227.5t-157.5 -134t-184.5 -46.5q-180 0 -269 59.5t-89 143.5q0 25 11 45.5t26.5 31t31 18t26.5 9.5l11 2q0 -94 64.5 -157.5t167.5 -63.5q166 0 266 160.5t100 452.5 q0 285 -82.5 428t-236.5 143q-138 0 -221.5 -102t-83.5 -252q0 -153 81 -247.5t193 -94.5q140 0 213 88q31 -26 31 -60q0 -116 -246 -116q-128 0 -225.5 61.5t-146 158t-48.5 210.5z" />
<glyph unicode=":" horiz-adv-x="421" d="M96 92q0 49 34.5 78t82.5 29q56 0 87.5 -28t31.5 -79q0 -48 -33 -74t-86 -26q-47 0 -82 27.5t-35 72.5zM96 784q0 48 34.5 76.5t82.5 28.5q56 0 87.5 -28t31.5 -77t-33 -75.5t-86 -26.5q-47 0 -82 27.5t-35 74.5z" />
<glyph unicode=";" horiz-adv-x="323" d="M45 -129q27 0 62.5 31.5t35.5 74.5q0 34 -28 48q-26 15 -41 34.5t-15 53.5q0 35 28 61.5t81 26.5q56 0 83.5 -35.5t27.5 -85.5q0 -51 -18.5 -106.5t-62.5 -100.5t-102 -45q-16 0 -29 11t-17 21zM45 784q0 48 35 76.5t84 28.5q55 0 87 -28t32 -77t-33.5 -75.5t-85.5 -26.5 q-49 0 -84 27.5t-35 74.5z" />
<glyph unicode="&#x3c;" horiz-adv-x="1026" d="M-18 586q0 30 79 63l797 443q31 -42 31 -72q0 -53 -76 -94l-616 -334q193 -92 331.5 -164t209 -114t110 -73.5t47.5 -44t8 -24.5q0 -31 -47 -78l-721 391l-22 11t-40 21t-42 23.5t-35.5 25t-13.5 20.5z" />
<glyph unicode="=" horiz-adv-x="1103" d="M31 274q8 82 39 115q33 31 127 31h661q37 0 79.5 16t66.5 32l24 15q0 -4 -0.5 -10.5t-3 -25t-7.5 -35.5t-15.5 -38t-25 -36t-37.5 -25t-52 -10h-690q-39 0 -80.5 -7.5t-63.5 -14.5zM31 664q8 81 39 116q33 29 127 29h661q37 0 79.5 15.5t66.5 31.5l24 16q0 -4 -0.5 -10.5 t-3 -25t-7.5 -35.5t-15.5 -38t-25 -36t-37.5 -25t-52 -10h-690q-39 0 -80.5 -7t-63.5 -14z" />
<glyph unicode="&#x3e;" horiz-adv-x="1028" d="M117 172q0 12 8 24.5t47.5 44t110 73.5t209 114t331.5 164l-616 334q-76 41 -76 94q0 30 31 72l796 -443q80 -34 80 -63q0 -8 -13.5 -20.5t-35.5 -25t-42 -23.5t-40 -21l-22 -11l-721 -391q-47 47 -47 78z" />
<glyph unicode="?" d="M-8 1135q0 117 111 197.5t274 80.5q165 0 264.5 -80t99.5 -233q0 -55 -21.5 -107t-56 -93.5t-76 -81.5t-82.5 -80.5t-75.5 -81.5t-56 -92.5t-21.5 -106.5q0 -31 10 -76q-71 0 -109 36t-38 103q0 32 10 61.5t22.5 52t46 57t58 57t80.5 71.5q148 131 148 271 q0 97 -50.5 162t-146.5 65q-74 0 -128 -28.5t-81 -66t-43 -89t-19 -82.5t-3 -62q-42 0 -79.5 36t-37.5 110zM225 90q0 49 34.5 78t82.5 29q56 0 88.5 -28t32.5 -79q0 -48 -34 -74t-87 -26q-47 0 -82 27.5t-35 72.5z" />
<glyph unicode="@" horiz-adv-x="1783" d="M57 406q0 187 79.5 361t213.5 302.5t320 205.5t389 77q121 0 221.5 -21.5t170 -60t121 -89t81 -111.5t43.5 -123.5t14 -129.5q0 -137 -41 -255t-104 -195.5t-140 -133.5t-147.5 -81t-128.5 -25q-80 0 -117 39t-37 104q0 48 27 119q-193 -262 -426 -262q-99 0 -144.5 47 t-45.5 127q0 108 68.5 251t148.5 228q106 114 203.5 166.5t201.5 52.5q60 0 85.5 -21t25.5 -52q0 -16 -11.5 -45t-23.5 -49l-12 -21q-1 3 -3.5 8t-11.5 18t-21.5 22.5t-34.5 17.5t-48 8q-112 0 -271 -183q-59 -68 -102 -172.5t-43 -189.5q0 -113 92 -113q65 0 160 79.5 t178 191.5t131 215q39 83 103 239q29 76 139 76h39q-81 -138 -156 -321q-100 -244 -100 -396q0 -96 61 -96q49 0 98 26.5t89 70.5t71 92.5t54 99.5q63 137 63 303q0 75 -16 140t-53.5 123.5t-94.5 100.5t-144.5 66.5t-197.5 24.5q-175 0 -335.5 -64t-279.5 -174.5t-190 -270 t-71 -341.5q0 -274 153 -422t455 -148q139 0 272 36t216 80t151 97q14 -37 14 -57q0 -63 -51 -110.5t-123.5 -73t-172 -41t-176 -19.5t-155.5 -4q-213 0 -376.5 79.5t-255 228.5t-91.5 348z" />
<glyph unicode="A" horiz-adv-x="1222" d="M2 98q0 40 20 99t37.5 95.5t55.5 110.5q172 340 268 555.5t96 292.5q0 31 -9 53t-23.5 32t-24 13.5t-19.5 4.5q0 19 31 40t82 21q46 0 82.5 -17.5t62.5 -52t43 -69t35 -84.5l367 -1012q21 -57 61 -88t72 -31h51v-61h-442v61h49q28 1 44.5 17t16.5 39q0 24 -8 45 q-11 31 -53 152t-51 145h-559q-111 -231 -111 -322q0 -55 14 -88t37 -35q0 -7 -11 -17.5t-40 -21t-67 -10.5q-34 0 -57 15t-33 38.5t-13.5 42.5t-3.5 37zM340 575h467q-40 104 -110 303t-99 279q-1 -1 -41 -103t-93 -219.5t-124 -259.5z" />
<glyph unicode="B" horiz-adv-x="1296" d="M49 0v61h53q54 0 82.5 29.5t28.5 67.5v1075q0 44 -26 68t-64 24h-74v61h197q46 0 198 15q115 14 222 14q110 0 196.5 -22t140 -58.5t88.5 -86.5t48.5 -101.5t13.5 -108.5q0 -109 -50 -178.5t-142 -114.5q106 -27 184 -114.5t78 -227.5q0 -85 -29.5 -157t-87.5 -127.5 t-153.5 -87t-219.5 -31.5h-684zM360 147q4 -4 10.5 -8t31 -12.5t58.5 -14.5t99 -11t146 -5q76 0 139 19.5t102.5 50t66.5 70t38.5 78t11.5 75.5q0 34 -6.5 68.5t-24.5 72.5t-46.5 66.5t-76 47t-108.5 18.5q-19 0 -73.5 -6.5t-76.5 -6.5q-96 0 -96 78q0 13 7.5 26.5 t15.5 20.5l8 8q86 -10 133 -10q121 0 197.5 72.5t76.5 181.5q0 43 -8 80.5t-32 78t-63 69t-106.5 47t-156.5 18.5q-67 0 -144 -13.5t-123 -39.5v-1119z" />
<glyph unicode="C" horiz-adv-x="1339" d="M55 684q0 114 24 213t65.5 171.5t98 131.5t119.5 98t133.5 65t136.5 37t130 11q223 0 349 -63t126 -189q0 -81 -35.5 -124.5t-73.5 -43.5q-12 0 -16 2q0 91 -25.5 153.5t-75 96.5t-110 48t-143.5 14q-67 0 -138.5 -22t-144 -71.5t-129 -119.5t-92 -174.5t-35.5 -227.5 q0 -121 31.5 -225t82.5 -174.5t116.5 -121t133 -74t132.5 -23.5q150 0 245.5 51t161.5 174q42 0 67 -28t25 -72q0 -74 -72 -128t-181 -79t-236 -25q-61 0 -123.5 11.5t-129 37.5t-126.5 65t-113.5 97.5t-92.5 130.5t-62 169t-23 208z" />
<glyph unicode="D" horiz-adv-x="1409" d="M51 0v61h45q53 0 85 41t32 91v1021q0 113 -96 113h-66v59h197q67 0 206 14.5t214 14.5q123 0 224.5 -29t168.5 -75t118 -111t78.5 -128t44.5 -135.5t22 -125t5 -104.5q0 -88 -17 -179.5t-61 -190.5t-109.5 -175.5t-172.5 -126t-240 -49.5q-128 0 -199 33.5t-71 89.5 q0 35 23 54t46 21l23 2q1 -4 4 -10.5t17 -23.5t34 -30t58 -23.5t86 -10.5q86 0 157 36.5t118 97t79 141.5t46.5 167t14.5 177q0 49 -6.5 101t-23 112.5t-41.5 115t-66 106t-93.5 89t-126.5 60t-161 22.5q-191 0 -285 -45v-1024q0 -30 -3 -58t-15 -63.5t-31.5 -61t-56 -43.5 t-84.5 -18h-121z" />
<glyph unicode="E" horiz-adv-x="1306" d="M90 0v74h68q38 0 68 23.5t30 68.5v1065q0 38 -21 67t-77 29h-64v59h291q50 0 246.5 6.5t249.5 6.5q106 0 161.5 -20.5t75.5 -60t21 -114.5q0 -59 -36 -109.5t-85 -50.5q0 143 -64 204t-233 61q-318 0 -318 -101v-430h351q118 0 118 -78q0 -43 -43.5 -80.5t-87.5 -37.5 q0 92 -131 92h-207v-506q0 -18 14.5 -31.5t43.5 -21.5t58.5 -13t74.5 -7t75 -2.5t76 -0.5q76 0 137.5 21.5t97.5 52t60.5 66t33.5 60.5t9 38q44 0 77.5 -36.5t33.5 -82.5q0 -211 -403 -211h-701z" />
<glyph unicode="F" horiz-adv-x="1067" d="M55 0v61h58q52 0 79 29t27 62v1079q0 38 -21 67t-77 29h-64v59h291q49 0 233.5 11.5t237.5 11.5q111 0 172.5 -23t84.5 -65.5t24 -116.5q0 -63 -32 -111.5t-91 -48.5q0 143 -64.5 206t-232.5 63q-311 0 -311 -103v-442h391q49 0 86 -19.5t37 -58.5q0 -45 -41 -94t-82 -49 q0 43 -44.5 80t-103.5 37h-243v-490q0 -43 35 -78t104 -35h65v-61h-518z" />
<glyph unicode="G" horiz-adv-x="1499" d="M102 682q0 158 46.5 286.5t120 209.5t170 136t191.5 78t189 23q85 0 149 -5t130 -20.5t108.5 -42t69.5 -73.5t27 -111q0 -54 -15 -92.5t-38.5 -56t-43.5 -24.5t-39 -7q0 82 -11.5 138t-42 103t-91 70t-152.5 23q-140 0 -255 -51t-189.5 -138.5t-115 -202t-40.5 -243.5 t38 -235.5t98 -174.5t138 -115t155 -67t151 -20q139 0 209.5 36.5t70.5 118.5v228q0 47 -24.5 77.5t-95.5 30.5h-90v66h524v-66h-92q-30 0 -52 -25.5t-22 -72.5v-246q0 -156 76 -156h32v-61h-122q-108 0 -227.5 -16.5t-231.5 -16.5q-154 0 -286.5 55.5t-223 151.5 t-142 227.5t-51.5 280.5z" />
<glyph unicode="H" horiz-adv-x="1540" d="M76 0v61h61q52 0 76.5 32.5t24.5 84.5v1045q0 48 -23.5 76t-71.5 28h-67v59h473v-59h-74q-47 0 -67.5 -30t-20.5 -68v-400q0 -4 0.5 -10t7.5 -16t19 -10h684q32 0 32 34v396q0 50 -24.5 77t-63.5 27h-73v59h487v-59h-76q-43 0 -71.5 -27t-28.5 -71v-1051q0 -47 25 -82 t81 -35h70v-61h-487v61h53q35 0 58.5 14.5t33 36.5t13 37.5t3.5 28.5v463q0 33 -32 37h-684q-12 0 -19 -8.5t-7 -17.5l-1 -9v-465q0 -49 23 -83t75 -34h64v-61h-473z" />
<glyph unicode="I" horiz-adv-x="641" d="M86 1327v59h465v-59h-68q-38 0 -63 -26t-25 -62v-1065q0 -52 31.5 -82.5t67.5 -30.5h57v-61h-463v61h57q48 0 74.5 32t26.5 81v1065q0 41 -29 64.5t-72 23.5h-59z" />
<glyph unicode="J" horiz-adv-x="643" d="M-133 -160q0 27 9.5 47.5t23 29.5t27 14t23.5 5l9 1q1 -6 3 -15t12 -33t24.5 -42t42 -33t61.5 -15q36 0 63.5 12.5t45 38.5t28.5 55t16.5 73t7 81.5t1.5 90.5v1089q0 41 -28.5 64.5t-71.5 23.5h-80v59h485v-59h-67q-38 0 -63 -26t-25 -62v-993q0 -295 -75 -422t-243 -127 q-229 0 -229 143z" />
<glyph unicode="K" horiz-adv-x="1372" d="M47 0v61h59q39 0 72 30t33 71v1071q0 38 -25 59t-67 21h-72v73h447v-73h-56q-42 0 -61 -23t-19 -57v-465h111q183 0 295 160q30 41 76 114.5t77.5 128t34.5 60.5q17 38 17 57q0 36 -51 39h-31v59h391v-59h-31q-48 0 -84.5 -34.5t-72.5 -92.5q-7 -11 -40 -65t-60.5 -97.5 t-70.5 -104t-78.5 -101.5t-76 -71.5t-72.5 -31.5q76 -15 173 -101.5t155 -211.5q163 -334 280 -334v-12q0 -84 -120 -84q-26 0 -48 6.5t-42 23t-34.5 32t-33.5 47t-30.5 53t-33.5 63.5q-20 41 -31 62t-34 64t-40 69t-44 64t-50.5 61.5t-55.5 51.5t-63 43t-69 25.5t-77 10.5 q-136 0 -136 -58v-442q0 -35 20.5 -68t61.5 -33h68v-61h-461z" />
<glyph unicode="L" horiz-adv-x="1081" d="M49 0v74h60q52 0 78 29t26 63v1061q0 15 -3.5 28.5t-13 31.5t-33 29t-57.5 11h-53v59h492v-59h-82q-40 0 -70.5 -25t-30.5 -67v-1057q0 -33 15.5 -50t72.5 -27.5t168 -10.5q66 0 132.5 19.5t117 65t50.5 106.5q0 19 -2 33t-4 18l-3 4q12 8 56 8q41 0 71.5 -31.5 t30.5 -79.5q0 -233 -393 -233h-625z" />
<glyph unicode="M" horiz-adv-x="2060" d="M63 0v61h37q73 0 112.5 45.5t43.5 94.5l84 1030q-4 96 -104 96h-74v59h229q91 0 137.5 -36t87.5 -138q53 -129 191.5 -450.5t216.5 -521.5q86 198 208 510t167 421q9 23 18.5 43t31.5 54t46.5 57.5t63.5 42t83 18.5h230v-59h-70q-52 0 -82 -22.5t-30 -65.5 q7 -129 100 -1030q7 -67 48.5 -107.5t96.5 -40.5h47v-61h-442v61h23q71 0 71 93q0 14 -30 329q-9 103 -31.5 333.5t-26.5 283.5q0 59 -2 59q-10 0 -160 -375q-10 -24 -57.5 -142t-73 -180.5t-71.5 -170t-88 -197.5q-43 -94 -140 -94q-23 0 -40 10t-17 19q12 24 12 71 q0 43 -50 171.5t-147.5 347t-103.5 233.5q-131 311 -137 311q-8 0 -45 -470t-37 -515q0 -117 74 -117h22v-61h-422z" />
<glyph unicode="N" horiz-adv-x="1523" d="M59 1327v59h174q46 0 82.5 -9t60.5 -20.5t50 -37t40 -44.5t40 -56l645 -955v942q0 56 -24 88.5t-70 32.5h-72v59h457v-59h-58q-53 0 -76.5 -31t-23.5 -71v-1039q0 -50 18.5 -88.5t37.5 -54.5t30 -16q-35 -41 -129 -41q-69 0 -115 63q-24 31 -214 305.5t-368 533.5 l-179 259v-954q0 -30 8.5 -57.5t38 -51t75.5 -23.5h64v-61h-483v61h51q52 0 81 34.5t29 82.5v1028q0 50 -29 85.5t-104 35.5h-37z" />
<glyph unicode="O" horiz-adv-x="1505" d="M66 688q0 210 79 373.5t233.5 258.5t362.5 95q166 0 298.5 -57t216 -156.5t127.5 -230.5t44 -283q0 -146 -46 -276.5t-130 -230t-214.5 -158t-288.5 -58.5q-190 0 -347 97t-246 263t-89 363zM231 688q0 -124 35.5 -235t100 -197t164.5 -136.5t221 -51.5q155 0 272.5 83 t177.5 223t60 314q0 105 -21.5 200t-65.5 173.5t-106 136t-147 89.5t-185 32q-127 0 -226 -54t-158 -145t-89.5 -200.5t-32.5 -231.5z" />
<glyph unicode="P" horiz-adv-x="1161" d="M41 0v61h63q47 0 80 28.5t33 68.5v1056q0 53 -33 82t-90 29h-53v61h172q100 1 228 17t206 16q111 0 198.5 -25.5t143.5 -68.5t92.5 -102.5t52 -124t15.5 -137.5q0 -192 -134 -324.5t-329 -132.5q-89 0 -154 31t-65 92q0 28 24.5 51t59.5 24q0 -32 35.5 -67t111.5 -35 q94 0 163.5 52.5t101.5 131t32 168.5q0 54 -11 104.5t-38.5 100t-69 86.5t-108.5 59.5t-152 22.5q-69 0 -142 -19.5t-107 -50.5v-1069q0 -38 13.5 -64t36.5 -38.5t45.5 -17.5t47.5 -5h57v-61h-526z" />
<glyph unicode="Q" horiz-adv-x="1523" d="M55 668q0 161 53.5 300.5t146 237t221 153.5t274.5 56q306 0 495 -198.5t189 -542.5q0 -153 -64 -293.5t-170 -236t-229 -126.5q9 -4 98.5 -44t149 -59t106.5 -19q25 0 46 2t33.5 4.5t21.5 5t14 4.5l4 2q0 -12 -1 -21.5t-4 -31t-12 -37.5t-23 -32.5t-39 -26t-58 -9.5 q-58 0 -134 31t-138 68.5t-139 68.5t-136 31q-55 0 -104.5 -22t-71.5 -44l-23 -22q-26 39 -26 84q0 119 186 119q82 0 159 21.5t148 69t124 116.5t84.5 171t31.5 226q0 298 -141.5 467.5t-378.5 169.5q-238 0 -383.5 -178t-145.5 -465q0 -122 32 -238t98 -205.5t153 -115.5 q0 -2 -0.5 -6t-4.5 -14t-10 -17.5t-19 -14t-30 -6.5q-95 0 -184.5 90t-144 233.5t-54.5 293.5z" />
<glyph unicode="R" horiz-adv-x="1372" d="M37 0v61h59q117 0 117 125v1049q0 43 -31.5 67.5t-85.5 24.5h-59v59h196q81 0 198.5 15.5t193.5 15.5q129 0 229 -32t160.5 -88t91.5 -128t31 -157q0 -77 -31 -148.5t-78.5 -119.5t-100 -78.5t-98.5 -36.5q39 -10 78 -40.5t74.5 -78.5t59.5 -86.5t53 -91.5 q94 -171 135.5 -217.5t101.5 -46.5v-13q0 -41 -35 -62.5t-86 -21.5q-35 0 -62.5 13.5t-56 52t-45 66t-51.5 93.5q-2 3 -2.5 4l-1.5 3l-2 4q-22 42 -32 60t-34.5 60t-40.5 64t-42.5 56.5t-49.5 53.5t-52 39t-60 29t-64 9t-66.5 17.5t-33.5 51.5q0 41 23 74q50 -33 118 -33 q80 0 144 30.5t101 78t56 98.5t19 98q0 64 -18 119.5t-57.5 105t-113 78.5t-174.5 29q-61 0 -133 -15.5t-117 -41.5v-1082q0 -57 31.5 -91t83.5 -34h76v-61h-516z" />
<glyph unicode="S" horiz-adv-x="1105" d="M74 250q0 36 11.5 64.5t27.5 43.5t32 24.5t27 11.5l12 3q1 -7 2.5 -18.5t11.5 -45.5t24 -64.5t43 -68t66 -64.5t95 -45.5t127 -18.5q78 0 138 19.5t93.5 47t55 63t28 62.5t6.5 51q0 28 -3 46.5t-21 52.5t-51.5 63.5t-101 69.5t-162.5 80q-107 45 -184 92.5t-120 88 t-67.5 88t-31.5 85t-7 86.5q0 61 28.5 121.5t81 111.5t137 83t185.5 32q202 0 311 -80.5t109 -193.5q0 -45 -13 -78t-34.5 -50t-43 -24.5t-44.5 -7.5q0 181 -74.5 260.5t-210.5 79.5q-118 0 -200.5 -71.5t-82.5 -174.5q0 -71 41.5 -128.5t107.5 -96.5t146 -75.5t160 -76 t146 -86.5t107.5 -118.5t41.5 -161.5q0 -71 -34 -136.5t-95.5 -116.5t-156.5 -81.5t-208 -30.5t-204 27.5t-144 71t-80.5 91.5t-27.5 93z" />
<glyph unicode="T" horiz-adv-x="1116" d="M12 1264q0 78 60 110q45 23 190 23q28 0 121 -3t174 -3q19 0 209 5t221 5q63 0 89 -30t26 -71q0 -28 -2.5 -57t-10 -65.5t-25 -59t-42.5 -22.5q0 33 -7 61t-17.5 47.5t-29.5 35.5t-35 25.5t-42.5 16.5t-44 10.5t-48 5.5t-45.5 2h-44q-78 0 -78 -86v-1034q0 -49 35 -84 t90 -35h75v-61h-546v61h69q49 0 88 33t39 86v1026q0 46 -17 71.5t-65 25.5q-55 0 -101 -7.5t-77 -17.5t-56 -27.5t-38 -30t-25 -33.5t-15 -29.5t-9 -24.5q-21 0 -43.5 44t-22.5 87z" />
<glyph unicode="U" horiz-adv-x="1482" d="M37 1327v59h473v-59h-74q-30 0 -59 -20t-29 -64v-721q0 -202 78.5 -314t237.5 -112q92 0 176 40.5t136.5 97.5t84 114.5t31.5 97.5v768q0 113 -109 113h-53v59h487v-59h-76q-35 0 -67.5 -22t-32.5 -62v-1036q0 -144 109 -144h67v-63h-149q-81 0 -128.5 46.5t-47.5 131.5 v43q-31 -40 -68 -75.5t-90.5 -74.5t-123 -62t-144.5 -23q-123 0 -215 38.5t-146 109t-80 161t-26 203.5v723q0 106 -109 106h-53z" />
<glyph unicode="V" horiz-adv-x="1222" d="M-100 1327v59h534v-59h-53q-105 0 -105 -96q0 -14 7 -35q100 -276 190.5 -533t124.5 -354t41 -110q104 226 223.5 523.5t157.5 416.5q24 74 24 125q0 71 -43 131q13 10 44.5 16t48.5 6q59 0 89.5 -39.5t30.5 -105.5q0 -70 -110 -330q-155 -361 -377 -844 q-56 -123 -160 -123q-29 0 -59.5 13.5t-30.5 23.5q35 35 35 86q0 34 -12 72l-359 971q-12 31 -20 49.5t-25.5 48t-36.5 46t-48 29.5t-64 13h-47z" />
<glyph unicode="W" horiz-adv-x="2244" d="M37 1327v59h524v-59h-41q-48 0 -76 -27.5t-28 -68.5q0 -19 6 -37q26 -115 123.5 -481.5t138.5 -497.5q110 242 225 526t148 392q18 52 18 86q0 80 -84 114q42 53 121 53q46 0 71 -21t46 -67q30 -71 175.5 -553t166.5 -538q47 112 143.5 426t151.5 512q7 25 10 65 q0 117 -145 117h-62v59h529v-59q-74 -2 -116.5 -38t-68.5 -120l-37 -120q-196 -664 -317 -963q-45 -111 -148 -111q-28 0 -58 13.5t-30 23.5q21 21 28 35.5t7 36.5q0 8 -6.5 33t-17.5 62t-13 46q-43 140 -130 408.5t-130 408.5q-254 -630 -397 -962q-24 -48 -65 -76.5 t-93 -28.5q-28 0 -52 13.5t-24 23.5q24 23 30.5 37t6.5 41q0 10 -16 82q-44 160 -136 485.5t-136 485.5q-7 33 -19.5 61.5t-34.5 58t-58.5 47t-82.5 17.5h-47z" />
<glyph unicode="X" horiz-adv-x="1331" d="M-27 0v61h60q50 0 104.5 37t127.5 130.5t117.5 158.5t140.5 211q44 68 67 102l-318 494q-91 133 -198 133h-49v59h530v-59h-53q-36 0 -61 -14.5t-25 -44.5q0 -20 27 -66t102 -160.5t133 -210.5q128 210 185 310t57 127q0 29 -25.5 44t-67.5 15h-39v59h500v-59h-47 q-53 0 -103.5 -35.5t-90.5 -99.5q-173 -279 -304 -471q141 -228 273 -434q78 -118 146 -175t110 -57h41q-1 -4 -3 -10t-12 -22t-23 -28t-38.5 -22t-56.5 -10q-119 0 -217 141q-24 35 -53.5 80.5t-54.5 86.5t-85.5 140t-112.5 183q-37 -56 -73.5 -111.5t-60 -90.5t-46.5 -70 t-36 -55l-26 -40t-19 -31t-11 -21.5t-6.5 -18t-2.5 -14t-1 -15.5q0 -30 25 -48t63 -18h96v-61h-586z" />
<glyph unicode="Y" horiz-adv-x="1204" d="M-61 1319q2 4 6 10.5t16.5 23t27 29t36.5 23t45 10.5q69 0 110.5 -27t104.5 -124q135 -218 315 -541q17 30 87 154t121.5 216.5t59.5 110.5q15 27 15 53q0 31 -24 49.5t-68 18.5h-39v61h483v-61h-31q-110 0 -194 -133q-104 -163 -210.5 -343.5t-140.5 -242.5v-432 q0 -48 37.5 -80.5t94.5 -32.5h86v-61h-568v61h74q59 0 93 35t34 78v406q0 72 -299 550q-124 201 -215 201q-33 0 -57 -12z" />
<glyph unicode="Z" horiz-adv-x="1273" d="M4 0v61h29q43 0 84.5 29.5t62.5 61.5l684 1056q23 31 23 68q0 35 -223 35q-75 0 -142.5 -9t-133 -32.5t-113 -59.5t-76.5 -93.5t-29 -131.5q-42 0 -72 48.5t-30 109.5q0 98 32 149q16 24 30.5 37.5t50 25.5t73 17t124 9t177 4.5t256.5 0.5h416v-59h-41q-46 0 -85 -35 t-81 -98q-60 -88 -159 -238t-167.5 -256t-178 -277t-118.5 -185q-2 -3 -9 -14t-10.5 -17t-8.5 -16.5t-7 -20t-2 -18.5q0 -28 38 -46.5t108 -26.5t129.5 -10.5t140.5 -2.5q123 0 203 56.5t80 147.5q15 15 47 15q42 0 67 -35t25 -78q0 -205 -307 -205q-97 0 -306 16.5 t-323 16.5h-258z" />
<glyph unicode="[" horiz-adv-x="546" d="M145 -274q2 86 2 325v1370q2 27 25 52.5t61 25.5h328v-104h-215q-20 0 -30.5 -10.5t-11.5 -21.5l-1 -11v-1549q0 -11 0.5 -16.5t4 -13t11.5 -10.5t21 -3h217v-102h-340q-40 0 -56 21t-16 47z" />
<glyph unicode="\" horiz-adv-x="718" d="M-20 1587q28 8 55 8q71 0 94 -55l594 -1692h-45q-41 0 -69 16t-46 66z" />
<glyph unicode="]" horiz-adv-x="534" d="M-18 1395v104h327q38 0 61 -25.5t25 -52.5v-1370q0 -239 2 -325q0 -27 -16 -47.5t-55 -20.5h-340v102h217q13 0 21 3t11.5 10.5t4 13t0.5 16.5v1549v5t-2 10t-6 13t-13 10.5t-22 4.5h-215z" />
<glyph unicode="^" horiz-adv-x="835" d="M-8 745l364 633q20 35 33.5 48.5t32.5 13.5q17 0 25.5 -8t17.5 -27l371 -660q-38 -34 -80 -34q-56 0 -94 71l-244 465l-258 -467q-16 -28 -42.5 -42.5t-51.5 -14.5q-46 0 -74 22z" />
<glyph unicode="_" horiz-adv-x="1419" d="M72 -248q2 70 45 111q37 39 147 39h936q34 0 75.5 8t66.5 16l24 8q0 -3 -0.5 -9t-3 -22.5t-7.5 -31.5t-15.5 -33.5t-25 -31.5t-37.5 -22t-52 -9h-961q-39 0 -87 -5.5t-77 -11.5z" />
<glyph unicode="`" horiz-adv-x="444" d="M82 1462q23 37 54 60.5t48 23.5q19 0 31 -26q4 -13 16.5 -54.5t20 -63t21.5 -55.5t30 -61.5t35 -50.5q5 -3 25 -23.5t20 -23.5q0 -8 -6 -14.5t-15 -6.5q-38 0 -106.5 60.5t-121 132t-52.5 102.5z" />
<glyph unicode="a" horiz-adv-x="1048" d="M70 262q0 74 28 129t75 89t118 54.5t147 28.5t172 8h131v97q0 38 -2 63.5t-14.5 67t-35 67t-68.5 45t-111 19.5q-71 0 -124 -22.5t-81 -59.5t-40.5 -75.5t-12.5 -78.5q-4 0 -11 1t-24 7t-30 16.5t-24 32.5t-11 52q0 93 102 154t256 61q179 0 274 -80.5t95 -269.5v-461 q0 -76 24 -115t80 -39h31v-53h-105q-47 0 -80.5 13t-50 30t-25.5 43.5t-10.5 43t-1.5 40.5v313h-133q-197 0 -296 -51.5t-99 -171.5q0 -92 59 -141t134 -49q38 0 72.5 9.5t55.5 23t37 27t23 22.5l6 10q9 0 26 -19t17 -39q0 -118 -244 -118q-41 0 -83.5 8.5t-87 29.5 t-79.5 51.5t-57 79t-22 107.5z" />
<glyph unicode="b" horiz-adv-x="1263" d="M39 0v53h41q39 0 64.5 11.5t37 32.5t15.5 41t4 46v1078q0 63 -27.5 93.5t-95.5 30.5h-39v54h180q34 0 58 -9.5t35.5 -22t17.5 -37.5t7 -41t1 -48v-477q48 79 136.5 131.5t199.5 52.5q121 0 213 -42t145 -114.5t79 -161t26 -190.5q0 -62 -17 -129t-54 -134.5t-89 -120.5 t-130 -86.5t-169 -33.5q-118 0 -172.5 33.5t-54.5 75.5q0 25 18 43t43 18q2 -3 6 -8.5t18.5 -19.5t31.5 -24.5t47 -19.5t63 -9q143 0 227 119t84 296q0 116 -32.5 207.5t-105.5 150t-177 58.5q-144 0 -240 -119t-96 -274v-344q0 -26 -5.5 -50.5t-19.5 -51t-45 -42.5t-75 -16 h-154z" />
<glyph unicode="c" horiz-adv-x="985" d="M59 487q0 77 18.5 151t58 143t96.5 121t140.5 83t182.5 31q187 0 272.5 -46t85.5 -167q0 -68 -34 -99.5t-84 -31.5q0 72 -8.5 115.5t-34 76t-72 45.5t-121.5 13q-100 0 -181.5 -59t-126 -158.5t-44.5 -217.5q0 -176 97.5 -297.5t242.5 -121.5q53 0 99 14.5t74.5 32.5 t56 48.5t37.5 45.5t26 41q65 -36 65 -84q0 -32 -20 -63.5t-61 -61t-117.5 -48t-176.5 -18.5q-110 0 -201.5 44.5t-149 118t-89 164t-31.5 185.5z" />
<glyph unicode="d" horiz-adv-x="1284" d="M102 475q0 74 15.5 144.5t52 138.5t91 118.5t138.5 81.5t187 31q102 0 188 -38t123 -101v412q0 25 -2.5 42t-12 38.5t-32.5 32.5t-59 11h-54v54h156q81 0 113 -39.5t32 -124.5v-1090q0 -57 27.5 -95t77.5 -38h61v-53h-151q-61 0 -108.5 42t-47.5 122v385q0 159 -80 255.5 t-231 96.5q-106 0 -184.5 -63t-116 -159t-37.5 -208q0 -109 38.5 -201.5t111.5 -149.5t167 -57q53 0 100 19t66 34t29 27q31 -34 31 -65q0 -33 -27.5 -55t-71.5 -31t-76 -12t-65 -3q-127 0 -230.5 67t-161 181t-57.5 250z" />
<glyph unicode="e" horiz-adv-x="1128" d="M92 477q0 154 54.5 274.5t169 193.5t274.5 73q184 0 302 -117.5t118 -302.5q0 -37 -3.5 -63t-15 -42.5t-21.5 -25.5t-35.5 -13t-42 -4.5t-56.5 -0.5q-250 0 -316 -5.5t-114 -35.5q-11 11 -18 34t-7 35q0 22 14.5 36t45 19.5t54.5 7t66 1.5h250q34 0 48.5 12t14.5 43 q0 90 -29.5 163t-97 121t-163.5 48q-87 0 -155.5 -38.5t-110.5 -103t-63.5 -143.5t-21.5 -166q0 -104 40.5 -197t118.5 -153.5t177 -60.5q71 0 127.5 17t94.5 48t58.5 56t41.5 59q24 -9 43.5 -34t19.5 -44q0 -76 -99 -134.5t-286 -58.5q-98 0 -179 30.5t-135 80.5t-92 115.5 t-54.5 135t-16.5 140.5z" />
<glyph unicode="f" horiz-adv-x="798" d="M61 0v53h50q61 0 85.5 35t24.5 84v713h-160v82h39q34 0 59 10.5t36 26t18 31t7 25.5l1 11q0 100 22 175.5t55 118t79.5 69t86.5 35t85 8.5q52 0 96 -8t81.5 -26t59 -49.5t21.5 -74.5q0 -36 -10 -59.5t-28 -32.5t-30 -11t-28 -2q0 177 -162 177q-193 0 -193 -299v-125h256 q93 0 93 -66q0 -29 -18 -54t-36 -35l-18 -11q0 84 -203 84h-74v-713q0 -51 27.5 -85t91.5 -34h43v-53h-457z" />
<glyph unicode="g" horiz-adv-x="1187" d="M63 481q0 100 31 188t89.5 157t152.5 109t211 40q110 0 194 -42t121 -108v25q0 117 144 117h153v-54h-47q-64 0 -90.5 -32.5t-26.5 -118.5v-719q0 -96 -27.5 -180t-80 -149.5t-138 -103.5t-194.5 -38q-79 0 -144.5 13t-106.5 33.5t-69.5 47t-40.5 51t-12 47.5q0 29 11 51 t27 33t32.5 17.5t27.5 8.5l11 1q0 -36 16.5 -72.5t48 -68t83.5 -51t116 -19.5q146 0 226.5 102t80.5 265v493q0 159 -82.5 259t-234.5 100q-84 0 -150 -33.5t-106 -91.5t-60 -129t-20 -152q0 -86 28 -158.5t73 -119t99.5 -72t108.5 -25.5q119 0 187 64q4 -1 11 -4.5t18 -19 t11 -36.5q0 -44 -54.5 -71t-168.5 -27q-192 0 -325.5 134.5t-133.5 338.5z" />
<glyph unicode="h" horiz-adv-x="1212" d="M51 0v53h45q55 0 78 28t23 62v1139q0 41 -23.5 72.5t-67.5 31.5h-55v54h144q70 0 105.5 -36t35.5 -101v-480q46 75 136 124.5t206 49.5q172 0 264 -84.5t92 -250.5v-496q0 -43 27.5 -78t79.5 -35h41v-53h-146q-74 0 -107.5 50t-33.5 114v450q0 143 -63 213t-175 70 q-100 0 -175 -57t-110.5 -144t-35.5 -188v-352q0 -48 26.5 -75.5t59.5 -27.5h35v-53h-406z" />
<glyph unicode="i" horiz-adv-x="571" d="M68 -2v53h49q42 0 76 28.5t34 84.5v641q0 106 -104 106h-49v54h141q83 0 115 -39.5t32 -120.5v-641q0 -53 35.5 -83t75.5 -30h49v-53h-454zM190 1303q0 40 28.5 63t70.5 23q45 0 72.5 -23t27.5 -63q0 -38 -28.5 -60t-71.5 -22q-40 0 -69.5 22.5t-29.5 59.5z" />
<glyph unicode="j" horiz-adv-x="649" d="M-12 -287q0 41 27 63.5t61 22.5q0 -19 4.5 -40t15 -46t34.5 -41t58 -16q129 0 129 278v830q0 32 -3 54t-13 46t-32.5 36.5t-57.5 12.5h-53v54h153q142 0 142 -166v-873q0 -95 -21 -167t-57.5 -113t-81 -60.5t-96.5 -19.5q-98 0 -153.5 39.5t-55.5 105.5zM281 1305 q0 40 29 63t69 23q46 0 73 -22.5t27 -63.5q0 -39 -28 -60.5t-72 -21.5q-39 0 -68.5 22.5t-29.5 59.5z" />
<glyph unicode="k" horiz-adv-x="1089" d="M33 0v53h49q37 0 68.5 27.5t31.5 85.5v1098q0 57 -19.5 89.5t-72.5 32.5h-55v54h117q53 0 88.5 -15t51.5 -43t21.5 -55t5.5 -63v-693h89q93 0 160 53.5t139 161.5q22 31 22 68q0 26 -21 42.5t-51 18.5h-41v52h424v-52h-34q-37 0 -73.5 -24t-59 -51t-54.5 -74 q-29 -42 -45.5 -64.5t-46.5 -57t-61.5 -60t-67.5 -45.5q41 -8 109.5 -69t132.5 -177q81 -146 136 -194t118 -48q0 -40 -30.5 -64t-80.5 -24q-107 0 -217 207q-26 49 -49 86.5t-58 82t-70.5 73.5t-82.5 49t-98 20h-89v-317q0 -50 20.5 -80.5t61.5 -30.5h52v-53h-420z" />
<glyph unicode="l" horiz-adv-x="600" d="M-8 1386v50h162q64 0 98.5 -38.5t34.5 -97.5v-1011q0 -99 32.5 -158t98.5 -59q59 1 93.5 39t41.5 86q3 0 8 -1.5t18 -6.5t22.5 -12t17.5 -20t8 -30q0 -66 -58.5 -106.5t-156.5 -40.5q-260 0 -260 323v969q0 62 -30.5 88t-76.5 26h-53z" />
<glyph unicode="m" horiz-adv-x="1837" d="M76 0v53h57q56 0 80.5 35t24.5 76v647q0 42 -26 74.5t-79 32.5h-57v49h168q70 0 97.5 -38.5t27.5 -109.5q36 77 119 133t182 56q225 0 295 -205q40 86 117 145.5t184 59.5q93 0 162.5 -28.5t108 -77t57 -106.5t18.5 -124v-500q0 -42 27 -80.5t73 -38.5h33v-53h-107 q-47 0 -80.5 16t-50.5 43.5t-24.5 58t-7.5 66.5v408q0 169 -46.5 243t-162.5 74q-126 0 -200.5 -108.5t-74.5 -257.5v-387q0 -43 24.5 -73t78.5 -30h30v-53h-389v53h37q43 0 63.5 30.5t20.5 72.5v426q0 170 -45.5 248.5t-153.5 78.5q-97 0 -163 -59.5t-93.5 -151.5 t-27.5 -211v-331q0 -43 23 -73t77 -30h31v-53h-428z" />
<glyph unicode="n" horiz-adv-x="1216" d="M47 0v53h53q33 0 64 25t31 65v664q0 111 -101 111h-47v49h135q82 0 112 -40t30 -110q44 75 134.5 131t207.5 56q177 0 266.5 -94t89.5 -248v-478q0 -48 28.5 -89.5t92.5 -41.5h28v-53h-131q-78 0 -116.5 51.5t-38.5 130.5v432q0 291 -240 291q-136 0 -225.5 -112 t-89.5 -301v-336q0 -41 20 -72t60 -31h41v-53h-404z" />
<glyph unicode="o" horiz-adv-x="1150" d="M72 483q0 79 14 151t50 143.5t91.5 123t144.5 83.5t203 32q110 0 196.5 -32t140.5 -84t89.5 -123t49.5 -143t14 -151q0 -76 -15.5 -147.5t-52.5 -140t-91.5 -119t-139.5 -81t-191 -30.5q-105 0 -191 30.5t-143 81.5t-96 118.5t-56 139.5t-17 148zM211 483q0 -83 20 -156 t61 -134.5t113.5 -97.5t169.5 -36q92 0 162.5 36t110.5 97.5t60 134.5t20 156q0 67 -9.5 127t-34.5 118.5t-64 100t-101.5 67.5t-143.5 26t-145.5 -27t-104.5 -70t-66.5 -102t-37 -118t-10.5 -122z" />
<glyph unicode="p" horiz-adv-x="1214" d="M37 915v52h162q59 0 98 -35.5t39 -91.5v-64q54 89 147 146t205 57q84 0 151.5 -21.5t112.5 -60.5t76.5 -87t48.5 -107.5t24 -115.5t7 -118q0 -92 -32 -182t-87 -162.5t-138 -117t-177 -44.5q-113 0 -166 30.5t-53 72.5q0 21 9.5 38.5t19.5 25.5l10 7l6 -9t19.5 -21 t35 -26t54 -20.5t73.5 -9.5q124 0 206.5 117t82.5 295q0 122 -28.5 215t-93.5 151t-161 58q-92 0 -174 -56.5t-130 -147.5t-48 -189v-746q0 -51 31.5 -88t93.5 -37h61v-55h-456v55h47q46 0 67 34t21 69v1069q0 120 -107 120h-57z" />
<glyph unicode="q" horiz-adv-x="1218" d="M88 475q0 100 29.5 189.5t86.5 161t150.5 113.5t210.5 42q106 0 189 -46.5t129 -117.5v51q0 50 39.5 74.5t89.5 24.5h162v-54h-50q-114 0 -114 -120v-1059q0 -47 23.5 -82t82.5 -35h55v-49h-163q-65 0 -98 38.5t-33 98.5v819q0 163 -86.5 266t-229.5 103 q-146 0 -235.5 -115.5t-89.5 -300.5q0 -164 92 -273.5t221 -109.5q41 0 78 8t59.5 18.5t40.5 22.5t25 19t8 10q28 -30 28 -59q0 -11 -2 -19.5t-8.5 -23t-23 -25t-42 -20.5t-69 -15.5t-100.5 -5.5q-101 0 -188 41t-144.5 107.5t-90 150.5t-32.5 172z" />
<glyph unicode="r" horiz-adv-x="770" d="M23 0v53h55q27 0 46 11t28.5 29.5t13.5 35.5t4 35v624q0 125 -100 125h-47v54h145q128 0 137 -138q31 70 103 119t149 49q119 0 175 -53t56 -139q0 -43 -23.5 -78t-64.5 -35q-19 0 -33 7t-18 13l-4 7q7 5 16 31t9 45q0 50 -30 84t-91 34q-73 0 -129.5 -56.5t-85.5 -147.5 t-29 -197v-336q0 -123 90 -123h31v-53h-403z" />
<glyph unicode="s" horiz-adv-x="940" d="M82 156q0 25 10.5 44t25.5 27.5t30 14t26 6.5h10q2 -8 7.5 -21t28 -45.5t52.5 -58t85 -46t122 -20.5q116 0 181 48.5t65 105.5q0 51 -27 90.5t-71 63.5t-100.5 46.5t-115 39t-115 43t-100.5 56.5t-71 80.5t-27 114.5q0 107 102 186t281 79q178 0 261 -58.5t83 -148.5 q0 -38 -13.5 -64.5t-33.5 -37.5t-35 -15t-26 -4q0 238 -236 238q-105 0 -176.5 -42t-71.5 -114q0 -49 27 -88t71.5 -63.5t101 -47.5t115 -41t115 -43.5t101 -54t71.5 -74.5t27 -104q0 -133 -109.5 -209t-283.5 -76q-101 0 -191 27t-143 71.5t-53 94.5z" />
<glyph unicode="t" horiz-adv-x="700" d="M27 891v76q96 0 146.5 38.5t53.5 149.5h82v-188q68 0 120 5t80 12.5t45.5 17.5t22.5 18t5 16q61 -10 61 -61q0 -38 -35.5 -61t-99.5 -23h-199v-594q0 -227 129 -227q32 0 58 14t40.5 34t24.5 40.5t13 34.5l4 14q3 0 7.5 -1t17 -5.5t22 -12.5t17 -24t7.5 -37 q0 -59 -63.5 -104.5t-161.5 -45.5q-109 0 -179.5 77.5t-70.5 242.5v594h-147z" />
<glyph unicode="u" horiz-adv-x="1212" d="M29 913v54h159q58 0 98 -37t40 -107v-463q0 -155 55 -228t166 -73q90 0 166 60.5t118.5 157.5t42.5 204v297q0 26 -1 39t-7 35t-18 32.5t-37 19.5t-61 9v54h139q37 0 63 -13t37.5 -33.5t16 -37.5t4.5 -33v-680q0 -50 28.5 -83.5t94.5 -33.5h36v-53h-151q-66 0 -105 30 t-39 91v63q-47 -93 -138.5 -152t-209.5 -59q-90 0 -156 24.5t-104.5 68.5t-57 100.5t-18.5 126.5v483q0 137 -129 137h-32z" />
<glyph unicode="v" horiz-adv-x="956" d="M-23 913v54h408v-54h-37q-74 0 -74 -69q0 -30 17 -68q5 -19 98.5 -276t122.5 -324q47 91 97.5 196t108.5 261t58 231q0 84 -39 117q31 29 76 29q58 0 79 -27.5t21 -81.5q0 -41 -22.5 -111.5t-65 -166.5t-80.5 -176t-93.5 -193.5t-80.5 -165.5q-59 -125 -125 -125 q-56 0 -79 39q5 3 12 10t19 29.5t12 46.5q0 9 -4 29q-10 32 -45 128.5t-101.5 266t-126.5 303.5q-45 98 -129 98h-27z" />
<glyph unicode="w" horiz-adv-x="1624" d="M14 913v54h418v-54h-39q-39 0 -60.5 -22.5t-21.5 -54.5q0 -17 38 -152.5t89 -308t60 -205.5q89 186 180.5 409.5t91.5 288.5q0 29 -5 44.5t-24 31.5q33 39 74 39q46 0 70.5 -25t40.5 -71q190 -574 241 -721q84 176 191 534q37 131 37 201q0 22 -16 57.5t-46 47.5 q43 30 92 30q58 0 86.5 -38t28.5 -105q0 -34 -12.5 -86t-39.5 -129.5t-51 -141t-66 -172t-66 -171.5q-12 -33 -23 -58t-30.5 -59.5t-39.5 -56.5t-49 -38t-61 -16q-33 0 -55 8.5t-27 17.5l-6 9q4 2 10 6t16.5 25t10.5 51q0 74 -197 618q-15 -36 -53.5 -128.5t-60.5 -142.5 t-55 -124.5t-64 -136t-62 -115.5q-49 -90 -127 -90q-30 0 -46.5 6t-39.5 31q18 6 27.5 27.5t9.5 46.5q0 21 -5 45t-15 58.5t-11 39.5q-6 18 -32.5 109t-49 168t-53 171.5t-51.5 149.5q-19 47 -52 72.5t-75 25.5h-25z" />
<glyph unicode="x" horiz-adv-x="1073" d="M29 0v53h41q18 0 37.5 6.5t39.5 21t38 29.5t39.5 40.5t37.5 44.5t39 51t36.5 51.5t37.5 54.5t35 51l63 91q-82 129 -188 270q-35 46 -52 65t-45 39.5t-60.5 26.5t-82.5 6q2 4 5 9.5t15.5 21t28 27t42 21t57.5 9.5q41 0 76 -19.5t56 -43t52 -66.5l172 -270 q162 223 162 270q0 53 -74 53h-43v54h418v-54h-35q-50 0 -82 -18.5t-64 -58.5q-55 -79 -227 -332q59 -89 217 -307q37 -53 73.5 -89t64.5 -50t43.5 -18.5t27.5 -4.5q1 0 1 -1q-1 -1 -3 -5q-4 -6 -12.5 -15t-21.5 -18t-35 -15t-48 -6q-92 0 -166 109l-213 324 q-53 -74 -178 -267q-16 -23 -16 -47q0 -38 74 -41h47v-53h-430z" />
<glyph unicode="y" horiz-adv-x="1071" d="M-6 913q0 29 32 47.5t76 18.5q64 0 98 -32t60 -99q16 -42 111 -328t118 -340q35 -82 91 -96q83 223 162 463t79 295q0 37 -33 54t-126 17v54h423v-54q-97 0 -139 -133q-61 -191 -274 -790q-33 -95 -66 -163.5t-78.5 -131t-104 -95t-128.5 -32.5q-113 0 -170 53t-57 119 q0 28 11.5 50t28 34t33 19.5t27.5 9.5l12 2q0 -201 129 -201q33 0 63.5 20t51.5 46.5t42.5 70t33.5 74.5t28 76t21 59q-52 0 -97 38t-75 103q-43 95 -132 344.5t-98 274.5q-13 34 -22.5 53.5t-27.5 46.5t-44 40t-59 13z" />
<glyph unicode="z" horiz-adv-x="1107" d="M68 0v53h28q53 0 138 99t241 327q230 335 230 398q0 14 -9.5 18t-33.5 4q-17 0 -85.5 1t-87.5 1q-65 0 -125.5 -18.5t-107.5 -66t-47 -116.5q0 -22 4 -38q-43 0 -79 40.5t-36 94.5q0 91 89.5 135.5t238.5 44.5q70 0 203.5 -4t206.5 -4l180 6v-62h-35q-79 0 -143 -90 q-101 -142 -265.5 -393.5t-175.5 -275.5q-14 -22 -14 -43q0 -20 22.5 -26.5t67.5 -6.5h172q258 0 299 184q3 -1 8 -2.5t17 -8.5t21.5 -16.5t17.5 -26.5t8 -38q0 -72 -67 -126t-177 -54q-8 0 -179.5 5t-477.5 5h-47z" />
<glyph unicode="{" horiz-adv-x="720" d="M-18 602q83 5 131 22t78.5 60.5t40.5 109.5t10 177q0 48 0.5 76t2.5 73t6.5 73t12 66.5t20 63t29.5 53t41 46t54 33.5t69 23t86 7q60 0 110 -23.5t50 -68.5q0 -37 -27 -64q-19 24 -58.5 43t-72.5 19q-52 0 -86 -32t-55 -117t-21 -226v-75.5t-1.5 -67t-4.5 -64t-8.5 -55.5 t-13.5 -51.5t-19.5 -42.5t-27.5 -39.5t-37 -31t-47 -26.5q109 -38 133 -128.5t24 -356.5q0 -107 10.5 -181t31 -116t48.5 -60t66 -18q35 0 77 16t60 39q18 -18 22.5 -28.5t4.5 -28.5q0 -46 -55.5 -69t-130.5 -23t-130 24t-88 63t-52.5 98.5t-26.5 120t-7 138.5q0 33 3.5 105 t3.5 116q0 132 -34 184t-132 52q-26 0 -44 6.5t-26.5 14.5t-13.5 23t-5.5 23.5t-0.5 24.5z" />
<glyph unicode="|" horiz-adv-x="421" d="M152 -365v1844h137v-1844h-137z" />
<glyph unicode="}" horiz-adv-x="720" d="M-18 1393q0 45 49.5 68.5t109.5 23.5q52 0 94.5 -10t74 -25.5t56 -43t40.5 -53t27 -66t17 -71.5t9 -80t3.5 -80.5t0.5 -84.5q0 -111 10 -177t40.5 -109.5t78.5 -60.5t131 -22q0 -16 -0.5 -24.5t-5.5 -23.5t-13.5 -23t-26.5 -14.5t-44 -6.5q-98 0 -132 -52t-34 -184 q0 -44 3 -116t3 -105q0 -78 -6.5 -138.5t-26.5 -120t-52.5 -98.5t-87.5 -63t-130 -24t-130.5 23t-55.5 69q0 19 4 29t22 28q18 -23 60 -39t77 -16q38 0 66 18t48.5 60t31 116t10.5 181q0 74 0.5 111.5t2.5 90.5t6 78.5t11.5 60t19 52t28 37.5t39 32.5t51.5 22.5 q-33 14 -58.5 35t-42.5 42.5t-28.5 57t-17.5 63t-9 77t-3.5 82.5t-0.5 96q0 141 -21 226t-55 117t-86 32q-33 0 -72.5 -19t-58.5 -43q-26 26 -26 64z" />
<glyph unicode="~" horiz-adv-x="1204" d="M154 545q0 69 58 112t161 43q70 0 138.5 -22.5t114.5 -50t103 -50t105 -22.5q50 0 86.5 35.5t40.5 101.5q46 0 71 -27.5t25 -64.5q0 -64 -50 -104.5t-145 -40.5q-65 0 -133.5 23t-117.5 50.5t-110.5 50.5t-113.5 23q-37 0 -66 -15.5t-44 -38t-25 -44.5t-13 -38l-3 -15 q-3 0 -8.5 1t-20 7t-25 15t-19.5 27.5t-9 43.5z" />
<glyph unicode="&#xa2;" horiz-adv-x="849" d="M-6 492q0 86 24.5 168.5t72 155t125 125t175.5 71.5v266q23 -1 45 -5.5t47.5 -14t41.5 -30t16 -48.5v-158q85 -2 136 -9.5t95 -29.5t63 -65t19 -111q0 -58 -36.5 -94.5t-84.5 -36.5q0 93 -12 145t-49.5 75t-72 27.5t-114.5 4.5q-151 0 -248.5 -127t-97.5 -309 q0 -181 91.5 -301.5t236.5 -120.5q58 0 108 14.5t81 33t59 48t40.5 47.5t26.5 42q3 5 4 7q74 -44 74 -94q0 -62 -82.5 -118t-236.5 -70v-160q0 -29 -16 -49.5t-41.5 -30.5t-47.5 -14t-45 -5v261q-98 13 -176 61t-125 119t-71.5 155t-24.5 175z" />
<glyph unicode="&#xa3;" horiz-adv-x="1120" d="M-14 0v61q91 0 141.5 21t89.5 65q44 47 64 146t20 313h-166q-22 0 -46 -4.5t-37 -9.5l-13 -4q0 3 -1 17.5t-1 17.5v12q0 65 119 65h145v199q0 179 106.5 296.5t290.5 117.5q130 0 192 -43t62 -119q0 -58 -31 -94.5t-75 -36.5q0 87 -53.5 137.5t-139.5 50.5 q-39 0 -72.5 -11t-66 -38.5t-51.5 -83.5t-19 -135v-240h199q46 0 87 11t59 23l18 11q8 0 21.5 -18.5t13.5 -32.5q0 -26 -16 -44.5t-43.5 -27.5t-54 -12.5t-56.5 -3.5h-232v-39q0 -78 -1.5 -123t-8 -105t-20 -98.5t-39 -78t-62.5 -68.5h260q162 0 240 43t78 117q0 36 -10 59 q0 4 9.5 12.5t27.5 15.5t36 7q37 0 60.5 -31t23.5 -67q0 -250 -403 -250h-645z" />
<glyph unicode="&#xa5;" horiz-adv-x="1265" d="M-2 1200q1 4 3 10.5t10.5 23t20.5 29t35 23t52 10.5q75 0 122.5 -27t110.5 -122q60 -94 161 -270.5t130 -225.5q24 44 131.5 232.5t118.5 210.5q16 35 16 69q0 23 -18.5 38.5t-54.5 15.5h-60v61h490v-61h-49q-96 -3 -185 -134q-35 -55 -97.5 -156t-86.5 -139h59 q37 0 79.5 15.5t66.5 30.5l24 16q0 -7 -1 -18t-7.5 -39t-18.5 -50t-38 -39.5t-62 -17.5h-159q-74 -120 -86 -149v-121h202q37 0 79.5 16t66.5 32l24 15q0 -7 -1 -17.5t-8.5 -38t-20.5 -48.5t-42.5 -38.5t-68.5 -17.5h-231v-145q0 -50 28.5 -81.5t81.5 -31.5h107v-61h-568v61 h95q52 0 79 34.5t27 78.5v145h-186q-39 0 -80.5 -7t-63.5 -14l-22 -7q0 15 9.5 46t29.5 50q27 29 127 29h186v94q0 39 -76 174h-110q-39 0 -80.5 -7t-63.5 -15l-22 -7q0 15 9.5 47t29.5 52q26 28 127 28h51q-71 121 -127.5 205.5t-91 127.5t-65 66t-45 27t-34.5 4 q-8 0 -22.5 -3t-25.5 -6z" />
<glyph unicode="&#xa8;" horiz-adv-x="745" d="M80 1214q0 44 32.5 70.5t84.5 26.5q53 0 84.5 -26.5t31.5 -70.5q0 -43 -32.5 -67.5t-83.5 -24.5q-48 0 -82.5 25.5t-34.5 66.5zM424 1214q0 44 33.5 70.5t85.5 26.5q53 0 84.5 -26.5t31.5 -70.5q0 -43 -32.5 -67.5t-83.5 -24.5q-48 0 -83.5 25.5t-35.5 66.5z" />
<glyph unicode="&#xa9;" horiz-adv-x="1392" d="M66 721q0 129 48 243.5t130.5 196t198.5 129t247 47.5q133 0 250 -47t200 -128.5t131 -196t48 -244.5q0 -173 -81 -313t-225 -219.5t-321 -79.5t-320.5 80t-224.5 220t-81 312zM168 721q0 -149 67.5 -271t188 -192t268.5 -70t268.5 70t188.5 192t68 271q0 228 -151 381 t-376 153q-146 0 -266 -70t-188 -192.5t-68 -271.5zM338 721q0 78 22.5 141t58.5 102.5t84.5 66t97 37.5t99.5 11q146 0 207.5 -44t61.5 -111q0 -54 -29 -84.5t-76 -30.5q0 96 -42 136t-124 40q-40 0 -75 -13t-66.5 -41.5t-49.5 -81.5t-18 -124q0 -66 19.5 -117t51 -79 t65 -42t67.5 -14q60 0 110 31t72 82q82 0 82 -70q0 -57 -81.5 -99t-182.5 -42q-46 0 -92 10.5t-94 36t-84.5 64t-60 99.5t-23.5 136z" />
<glyph unicode="&#xab;" horiz-adv-x="1167" d="M-12 510l551 399q43 -43 43 -69q0 -32 -68 -80l-285 -256l291 -236q49 -40 49 -90q0 -32 -30 -67q-551 386 -551 399zM463 510l551 399q41 -41 41 -69q0 -33 -66 -80l-284 -256l290 -236q49 -40 49 -90q0 -32 -30 -67q-551 384 -551 399z" />
<glyph unicode="&#xad;" d="M59 399q0 9 1 23t11.5 45.5t28.5 48.5q33 33 140 33h280q34 0 75.5 8.5t66.5 16.5l24 8q0 -6 -1 -16t-8 -35.5t-20 -45t-41.5 -35.5t-66.5 -16h-330q-37 0 -77 -9t-62 -17z" />
<glyph unicode="&#xae;" horiz-adv-x="1392" d="M66 721q0 129 48 243.5t130.5 196t198.5 129t247 47.5q133 0 250 -47t200 -128.5t131 -196t48 -244.5q0 -173 -81 -313t-225 -219.5t-321 -79.5t-320.5 80t-224.5 220t-81 312zM168 721q0 -149 67.5 -271t188 -192t268.5 -70t268.5 70t188.5 192t68 271q0 228 -151 381 t-376 153q-146 0 -266 -70t-188 -192.5t-68 -271.5zM346 397v68h31q32 0 44.5 23.5t12.5 46.5v409q0 66 -63 66h-25v65h129q40 0 108 7.5t109 7.5q142 0 215.5 -54.5t73.5 -152.5q0 -65 -46 -117.5t-104 -73.5q30 -23 55.5 -55t42 -58.5t36 -51.5t48.5 -40.5t68 -17.5 q0 -31 -22 -59.5t-76 -28.5q-38 0 -78.5 33t-70.5 92q-36 62 -71.5 98.5t-59 45.5t-42.5 13t-27.5 11.5t-8.5 30.5q0 10 0.5 14.5t5.5 14t16 22.5q32 -13 62 -13q57 0 97 36t40 98q0 58 -42 94.5t-118 36.5q-93 0 -123 -35v-438q0 -9 2 -19t7.5 -22.5t18.5 -20.5t32 -8h36 v-68h-313z" />
<glyph unicode="&#xb4;" horiz-adv-x="288" d="M-37 1192q0 6 47 53q81 107 123 244q21 53 72 53q53 0 110 -90q0 -44 -54.5 -117t-126 -128.5t-114.5 -55.5q-25 0 -41 12t-16 29z" />
<glyph unicode="&#xb8;" horiz-adv-x="442" d="M10 -430q0 22 31 74q63 -58 117 -58q66 0 111.5 30.5t45.5 86.5q0 16 -3 27.5t-12.5 26t-33.5 22.5t-61 8q-69 0 -90 10t-21 49q0 30 33 96t78 109q92 -25 121 -33q-26 -15 -68.5 -69.5t-42.5 -73.5q0 -6 6 -7t29 -3q5 0 18.5 -1t22.5 -1q66 0 106.5 -39t40.5 -105 q0 -58 -31.5 -103.5t-80.5 -71t-100.5 -38t-98.5 -12.5q-45 0 -81 18t-36 58z" />
<glyph unicode="&#xbb;" horiz-adv-x="1167" d="M109 840q0 26 43 69l550 -399q0 -13 -550 -399q-31 36 -31 67q0 50 49 90l291 236l-285 256q-67 47 -67 80zM584 840q0 26 43 69l551 -399q0 -13 -551 -399q-31 36 -31 67q0 53 47 92q20 16 293 234q-95 83 -285 256q-67 47 -67 80z" />
<glyph unicode="&#x2c6;" horiz-adv-x="602" d="M4 1143q37 23 82 80l211 258q221 -209 229 -217q46 -53 49 -78q0 -26 -22 -46t-41.5 -27t-28.5 -7q-10 40 -36 76t-77 88.5t-65 68.5q-11 -15 -33.5 -51t-41.5 -63.5t-44 -57.5t-54 -46.5t-58 -16.5q-33 0 -51.5 13.5t-18.5 25.5z" />
<glyph unicode="&#x2da;" horiz-adv-x="598" d="M70 1339q0 40 13 77.5t39 70.5t72.5 52.5t106.5 19.5q113 0 169 -66t56 -154q0 -37 -12.5 -74.5t-38 -71t-71 -54.5t-103.5 -21q-112 0 -171.5 67t-59.5 154zM184 1339q0 -56 30 -98.5t87 -42.5q58 0 85.5 42t27.5 99q0 55 -27.5 100.5t-85.5 45.5t-87.5 -46t-29.5 -100z " />
<glyph unicode="&#x2dc;" horiz-adv-x="942" d="M100 1249q0 62 63 93.5t154 31.5q63 0 136 -21.5t135.5 -43t99.5 -21.5q49 0 78 26t29 56q20 0 36.5 -25t16.5 -53q0 -59 -43.5 -86.5t-104.5 -27.5q-71 0 -196 46t-182 46q-39 0 -72 -10t-52.5 -24t-33.5 -28t-20 -24l-5 -10q-3 0 -12 9t-18 27.5t-9 38.5z" />
<glyph unicode="&#x400;" horiz-adv-x="1273" d="M90 0h701q403 0 403 211q0 46 -33.5 82.5t-77.5 36.5q0 -13 -9 -38t-33.5 -60.5t-60.5 -66t-97.5 -52t-137.5 -21.5q-46 0 -76 0.5t-75 2.5t-74.5 7t-58.5 13t-43.5 21.5t-14.5 31.5v506h207q131 0 131 -92q44 0 87.5 37.5t43.5 80.5q0 78 -118 78h-351v430 q0 101 318 101q169 0 233 -61t64 -204q49 0 85 50.5t36 109.5q-1 75 -21 114.5t-75.5 60t-161.5 20.5q-53 0 -249.5 -6.5t-246.5 -6.5h-291v-59h64q56 0 77 -29t21 -67v-1065q0 -45 -30 -68.5t-68 -23.5h-68v-74zM485 1769q23 37 54.5 60.5t48.5 23.5q18 0 30 -26 q4 -13 16.5 -54.5t20 -63t21.5 -55.5t30 -61.5t35 -50.5q5 -3 25 -23.5t20 -23.5q0 -8 -5.5 -14t-14.5 -6q-38 0 -107 60.5t-121.5 131.5t-52.5 102z" />
<glyph unicode="&#x401;" horiz-adv-x="1306" d="M90 0h701q403 0 403 211q0 46 -33.5 82.5t-77.5 36.5q0 -13 -9 -38t-33.5 -60.5t-60.5 -66t-97.5 -52t-137.5 -21.5q-46 0 -76 0.5t-75 2.5t-74.5 7t-58.5 13t-43.5 21.5t-14.5 31.5v506h207q131 0 131 -92q44 0 87.5 37.5t43.5 80.5q0 78 -118 78h-351v430 q0 101 318 101q169 0 233 -61t64 -204q49 0 85 50.5t36 109.5q-1 75 -21 114.5t-75.5 60t-161.5 20.5q-53 0 -249.5 -6.5t-246.5 -6.5h-291v-59h64q56 0 77 -29t21 -67v-1065q0 -45 -30 -68.5t-68 -23.5h-68v-74zM313 1593q0 44 33.5 71.5t79.5 27.5q53 0 84 -26.5t31 -72.5 q0 -45 -32.5 -69.5t-82.5 -24.5q-44 0 -78.5 26t-34.5 68zM725 1593q0 44 33.5 71.5t79.5 27.5q53 0 83.5 -26.5t30.5 -72.5q0 -45 -32 -69.5t-82 -24.5q-44 0 -78.5 26t-34.5 68z" />
<glyph unicode="&#x402;" horiz-adv-x="1376" d="M-16 1311q0 106 174 106q42 0 164.5 -4t175.5 -4q33 0 138.5 3t162.5 3q115 0 158.5 -20t43.5 -84q0 -42 -22.5 -94t-36.5 -52q-2 0 -6.5 14t-15.5 34t-28.5 41t-54.5 37.5t-87 19.5l-185 6v-465q53 70 134.5 111t183.5 41q197 0 291 -82.5t94 -235.5v-614 q0 -173 -50 -257.5t-139 -84.5q-30 0 -51.5 8.5t-31 22.5t-13.5 25.5t-4 23.5q139 0 139 256v552q0 154 -55.5 219.5t-179.5 65.5q-94 0 -168 -57.5t-112 -146.5t-38 -189v-348q0 -41 20.5 -71t61.5 -30h39v-61h-420v61h60q31 0 53 20.5t29.5 41.5t7.5 37v1157 q-14 0 -42.5 1t-45.5 1q-64 0 -115 -12t-78.5 -28t-46.5 -37t-25 -34.5t-8 -23.5q-5 0 -21 16t-33 47.5t-17 63.5z" />
<glyph unicode="&#x403;" horiz-adv-x="980" d="M33 0v61h47q55 0 86 37.5t31 79.5v1036q0 62 -30.5 87.5t-86.5 25.5h-43v59h209q58 0 189 14.5t192 14.5q82 0 141.5 -9t113 -32.5t81.5 -71t28 -118.5q0 -120 -33 -169.5t-96 -49.5q0 42 -0.5 63t-2.5 58t-6.5 55.5t-13.5 47t-21.5 43.5t-32.5 33t-45.5 27t-60 15 t-77.5 6q-121 0 -188.5 -16.5t-67.5 -67.5v-1028q0 -66 38 -103t110 -37h67v-61h-528zM371 1602q0 8 47 49q82 106 129 256q17 41 51 41q39 0 92 -82l4 -6q0 -31 -53 -101t-122 -129t-107 -59q-18 0 -29.5 9t-11.5 22z" />
<glyph unicode="&#x404;" horiz-adv-x="1359" d="M59 684q0 114 24 213t65 171.5t97.5 131.5t119 98t132.5 65t135.5 37t129.5 11q100 0 184.5 -15.5t154.5 -48.5t110 -90.5t40 -134.5q0 -62 -38 -100.5t-93 -38.5q0 322 -368 322q-64 0 -133.5 -22t-137 -68t-121.5 -109.5t-88 -154t-36 -193.5h432q30 0 48.5 -0.5 t50.5 -2.5t52.5 -5.5t45 -11t39 -18.5t24.5 -27.5t10 -37.5q0 -37 -26.5 -69.5t-47.5 -32.5q-10 22 -27.5 38.5t-43.5 26t-48.5 15.5t-55.5 8.5t-51 3t-48 0.5h-359q2 -114 37 -211.5t89 -162.5t121 -111t132 -67t123 -21q300 0 408 225q42 0 67 -28t25 -72 q0 -55 -45.5 -101t-120 -74t-164.5 -43.5t-184 -15.5q-59 0 -120 11.5t-126 38t-124.5 65.5t-112.5 98t-92 131t-62 169t-23 208z" />
<glyph unicode="&#x405;" horiz-adv-x="1073" d="M59 250q0 36 11.5 64.5t27.5 43.5t32.5 24.5t27.5 11.5l12 3q1 -7 2.5 -18.5t11.5 -45.5t24 -64.5t43 -68t66 -64.5t95 -45.5t127 -18.5q78 0 138 19.5t93.5 47t55 63t28 62.5t6.5 51q0 28 -3 47t-21.5 52.5t-52 63t-101 69.5t-162.5 80q-107 45 -184 92.5t-120 88 t-67 88t-31 85t-7 86.5q0 61 28.5 121.5t81 111.5t137 83t185.5 32q202 0 311 -80.5t109 -193.5q0 -85 -42 -122.5t-94 -37.5q0 181 -74 260.5t-210 79.5q-118 0 -200.5 -71.5t-82.5 -174.5q0 -71 41.5 -128.5t107.5 -96.5t146 -75.5t160 -76t146 -86.5t107.5 -118.5 t41.5 -161.5q0 -71 -34 -136.5t-95.5 -116.5t-156.5 -81.5t-208 -30.5t-204 27.5t-144 71t-81 91.5t-28 93z" />
<glyph unicode="&#x406;" horiz-adv-x="622" d="M86 1327v59h465v-59h-68q-38 0 -63 -26t-25 -62v-1065q0 -52 31.5 -82.5t67.5 -30.5h57v-61h-463v61h57q48 0 74.5 32t26.5 81v1065q0 41 -29 64.5t-72 23.5h-59z" />
<glyph unicode="&#x407;" horiz-adv-x="641" d="M2 1585q0 44 33.5 71t79.5 27q53 0 83.5 -26t30.5 -72q0 -45 -32 -69.5t-82 -24.5q-44 0 -78.5 26t-34.5 68zM86 1327v59h465v-59h-68q-38 0 -63 -26t-25 -62v-1065q0 -52 31.5 -82.5t67.5 -30.5h57v-61h-463v61h57q48 0 74.5 32t26.5 81v1065q0 41 -29 64.5t-72 23.5 h-59zM414 1585q0 44 33 71t79 27q53 0 84 -26t31 -72q0 -45 -32.5 -69.5t-82.5 -24.5q-44 0 -78 26t-34 68z" />
<glyph unicode="&#x408;" horiz-adv-x="643" d="M-133 -160q0 27 9.5 47.5t23 29.5t27 14t23.5 5l9 1q1 -6 3 -15t12 -33t24.5 -42t42 -33t61.5 -15q36 0 63.5 12.5t45 38.5t28.5 55t16.5 73t7 81.5t1.5 90.5v1089q0 41 -28.5 64.5t-71.5 23.5h-60v59h465v-59h-67q-38 0 -63 -26t-25 -62v-993q0 -295 -75 -422t-243 -127 q-229 0 -229 143z" />
<glyph unicode="&#x40b;" horiz-adv-x="1308" d="M23 1300q0 33 16 58.5t55 25.5h645q13 -26 13 -34q0 -30 -23.5 -51t-62.5 -21h-211v-426q115 152 317 152q197 0 291 -82.5t94 -235.5v-541q0 -90 82 -90h68v-55h-174q-57 0 -86 42t-29 101v475q0 153 -60.5 219t-185.5 66q-98 0 -172 -60.5t-109.5 -148.5t-35.5 -184 v-375q0 -80 61 -80h59v-55h-409v55h90q27 0 43 23t16 45v1155h-200l-64 2l-18 -14q-10 22 -10 34z" />
<glyph unicode="&#x40c;" horiz-adv-x="1372" d="M51 0v61h60q38 0 71 30t33 71v1071q0 38 -25 59t-67 21h-72v73h447v-73h-56q-42 0 -61 -23t-19 -57v-465h111q183 0 295 160q30 41 76 114.5t77.5 128t34.5 60.5q17 38 17 57q0 36 -51 39h-31v59h391v-59h-31q-48 0 -84.5 -34.5t-72.5 -92.5q-7 -11 -40 -65t-60.5 -97.5 t-70.5 -104t-78.5 -101.5t-76 -71.5t-72.5 -31.5q76 -15 173 -101.5t155 -211.5q163 -334 281 -334v-12q0 -84 -121 -84q-31 0 -58 12t-45.5 27.5t-41.5 50.5t-36.5 59t-39.5 76t-41 81t-46 83.5t-56 87.5t-64 75t-75.5 66t-84.5 41t-98 17q-136 0 -136 -58v-442 q0 -35 20.5 -68t61.5 -33h68v-61h-461zM520 1602q0 4 7 11.5t22 22t16 15.5q84 104 131 256q14 41 49 41q42 0 95 -82l4 -6q0 -31 -53 -101t-123 -129t-109 -59q-17 0 -28 9.5t-11 21.5z" />
<glyph unicode="&#x40d;" horiz-adv-x="1503" d="M82 1327v59h461v-59h-45q-33 0 -61.5 -25t-28.5 -73v-944q44 67 259 390t291 443q68 106 115.5 160t100 81t120.5 27h154v-59h-51q-50 0 -81.5 -28.5t-31.5 -84.5v-1028q0 -54 38.5 -89.5t84.5 -35.5h66v-61h-472v61h43q39 0 66 30.5t27 66.5v1005q-159 -240 -437.5 -654 t-308.5 -452q-38 -46 -66.5 -66t-68.5 -20q-31 0 -56.5 19t-29.5 53q4 2 9.5 6t21 19t27 31.5t21 43.5t9.5 56v1015q0 61 -35 87t-86 26h-55zM641 1784q23 37 54 60.5t48 23.5q19 0 31 -27q4 -13 16.5 -54.5t20 -63t21.5 -55.5t30 -61.5t35 -50.5q5 -3 25 -23.5t20 -23.5 q0 -8 -5.5 -14t-14.5 -6q-38 0 -107 60.5t-121.5 132t-52.5 102.5z" />
<glyph unicode="&#x40e;" horiz-adv-x="1705" />
<glyph unicode="&#x410;" horiz-adv-x="1222" d="M2 98q0 40 20 99t37.5 95.5t55.5 110.5q172 340 268 555.5t96 292.5q0 31 -9 53t-23.5 32t-24 13.5t-19.5 4.5q0 19 31 40t82 21q46 0 82.5 -17.5t62.5 -52t43 -69t35 -84.5l367 -1012q21 -57 61 -88t72 -31h51v-61h-442v61h49q28 1 44.5 17t16.5 39q0 24 -8 45 q-11 31 -53 152t-51 145h-559q-111 -231 -111 -322q0 -55 14 -88t37 -35q0 -7 -11 -17.5t-40 -21t-67 -10.5q-34 0 -57 15t-33 38.5t-13.5 42.5t-3.5 37zM340 575h467q-40 104 -110 303t-99 279q-1 -1 -41 -103t-93 -219.5t-124 -259.5z" />
<glyph unicode="&#x411;" horiz-adv-x="1255" d="M39 0v63h45q61 0 96 40t35 94v1022q0 46 -25 77t-84 31h-67v59h223q76 0 229 13.5t222 13.5q193 0 280.5 -43.5t87.5 -165.5q0 -47 -13 -80.5t-34 -49.5t-40 -23t-38 -7q0 60 -7.5 100.5t-29.5 78t-62.5 58.5t-107.5 33.5t-163 12.5q-221 0 -221 -106v-1043 q0 -102 243 -102q96 0 176 33t130.5 86.5t78 118t27.5 130.5q0 158 -77 236t-208 78q-77 0 -126.5 -34t-49.5 -62q-38 0 -57 24t-19 51q0 32 26 56t65.5 36.5t77.5 18.5t71 6q209 0 330 -107.5t121 -304.5q0 -88 -36.5 -170t-102 -147t-167.5 -104t-223 -39q-81 0 -209.5 9 t-202.5 9h-194z" />
<glyph unicode="&#x412;" horiz-adv-x="1306" d="M49 0v61h53q54 0 82.5 29.5t28.5 67.5v1075q0 44 -26 68t-64 24h-74v61h197q46 0 198 15q115 14 222 14q110 0 196.5 -22t140 -58.5t88.5 -86.5t48.5 -101.5t13.5 -108.5q0 -109 -50 -178.5t-142 -114.5q106 -27 184 -114.5t78 -227.5q0 -85 -29.5 -157t-87.5 -127.5 t-153.5 -87t-219.5 -31.5h-684zM360 147q4 -4 10.5 -8t31 -12.5t58.5 -14.5t99 -11t146 -5q76 0 139 19.5t102.5 50t66.5 70t38.5 78t11.5 75.5q0 34 -6.5 68.5t-24.5 72.5t-46.5 66.5t-76 47t-108.5 18.5q-19 0 -73.5 -6.5t-76.5 -6.5q-96 0 -96 78q0 13 7.5 26.5 t15.5 20.5l8 8q86 -10 133 -10q121 0 197.5 72.5t76.5 181.5q0 43 -8 80.5t-32 78t-63 69t-106.5 47t-156.5 18.5q-67 0 -144 -13.5t-123 -39.5v-1119z" />
<glyph unicode="&#x413;" horiz-adv-x="974" d="M33 0v61h47q55 0 86 37.5t31 79.5v1036q0 62 -30.5 87.5t-86.5 25.5h-43v59h209q58 0 189 14.5t192 14.5q82 0 141.5 -9t113 -32.5t81.5 -71t28 -118.5q0 -120 -33 -169.5t-96 -49.5q0 42 -0.5 63t-2.5 58t-6.5 55.5t-13.5 47t-21.5 43.5t-32.5 33t-45.5 27t-60 15 t-77.5 6q-121 0 -188.5 -16.5t-67.5 -67.5v-1028q0 -66 38 -103t110 -37h67v-61h-528z" />
<glyph unicode="&#x414;" horiz-adv-x="1368" d="M-27 -63q0 72 42 111.5t130 60.5q-6 14 -6 47q0 50 46 159.5t112.5 238t132.5 261t112 255.5t46 194q0 22 -7 40.5t-17.5 28t-21 16.5t-17.5 9l-7 2q0 24 29 42.5t78 18.5q46 0 83 -22t65.5 -65t48 -86t40.5 -105q17 -48 77.5 -223.5t99.5 -285.5t89 -249t79.5 -210 t37.5 -71q35 0 61.5 -5.5t44 -12.5t29.5 -22.5t18 -27.5t9 -35t3.5 -37t0.5 -42q0 -51 -16.5 -90t-32.5 -39q-4 0 -10 15.5t-14 38.5t-30 49.5t-53.5 49.5t-88.5 38.5t-130 15.5h-671q-67 0 -120.5 -11.5t-86.5 -30t-57 -41t-36 -45.5t-19 -41.5t-10.5 -30t-6.5 -11.5 q-56 0 -56 148zM307 203q0 -52 35 -72t100 -20h553q41 0 52.5 7.5t11.5 22.5q0 66 -354 1037q-59 -198 -216 -510q-5 -10 -23.5 -47.5t-27 -54.5t-26.5 -54t-27.5 -58.5t-23.5 -55t-22 -57t-16.5 -50t-12 -48.5t-3.5 -40z" />
<glyph unicode="&#x415;" horiz-adv-x="1273" d="M90 0v74h68q38 0 68 23.5t30 68.5v1065q0 38 -21 67t-77 29h-64v59h291q50 0 246.5 6.5t249.5 6.5q106 0 161.5 -20.5t75.5 -60t21 -114.5q0 -59 -36 -109.5t-85 -50.5q0 143 -64 204t-233 61q-318 0 -318 -101v-430h351q118 0 118 -78q0 -43 -43.5 -80.5t-87.5 -37.5 q0 92 -131 92h-207v-506q0 -18 14.5 -31.5t43.5 -21.5t58.5 -13t74.5 -7t75 -2.5t76 -0.5q76 0 137.5 21.5t97.5 52t60.5 66t33.5 60.5t9 38q44 0 77.5 -36.5t33.5 -82.5q0 -211 -403 -211h-701z" />
<glyph unicode="&#x416;" horiz-adv-x="1945" d="M59 78q48 0 100.5 46.5t97.5 116.5t96 151.5t96 151.5t97.5 118t100.5 49q-62 9 -119 75.5t-100.5 155t-86 176t-95 147.5t-109.5 60q-14 0 -45 -6q0 49 39.5 71.5t89.5 22.5q49 0 89.5 -22t70.5 -59.5t56.5 -86t50 -102t48 -106.5t54.5 -101.5t65 -86t84 -59.5t107 -22 h51v459q0 42 -27.5 71t-83.5 29h-45v59h449v-59h-47q-50 0 -74.5 -30.5t-24.5 -69.5v-459h60q67 0 134 43t115 101t92 133t66 123t37 87q4 8 4 25q0 22 -14 33.5t-35 13.5h-30v59h391v-59h-23q-45 0 -89 -37t-78.5 -94t-76 -128.5t-80 -136.5t-92.5 -121t-112 -81 q82 -26 150.5 -101t113 -162t84.5 -171t84.5 -139.5t93.5 -55.5q17 0 35 6q8 -13 8 -32q0 -39 -26 -63.5t-76 -24.5q-47 0 -87.5 23t-72 62.5t-60.5 90.5t-57 107t-57.5 112.5t-65.5 108t-76.5 91t-96.5 63t-120 24.5q-30 0 -36.5 -1t-6.5 -5v-490q0 -43 29 -77t76 -34h51 v-61h-467v61h58q52 0 79 32.5t27 78.5v487q0 9 -43 9q-72 0 -136.5 -37.5t-113 -98t-93 -133t-84.5 -145t-79 -133t-85.5 -98t-96.5 -37.5t-78.5 25.5t-28.5 66.5z" />
<glyph unicode="&#x417;" horiz-adv-x="1114" d="M70 223q0 36 33 68.5t67 32.5l10 -24q11 -23 35.5 -57t61.5 -68t102.5 -57.5t146.5 -23.5q88 0 156.5 25.5t107.5 68.5t58.5 92.5t19.5 104.5q0 30 -4.5 59t-16.5 64.5t-36 65.5t-58.5 55.5t-89 40t-122.5 14.5q-120 0 -211 -68q-12 0 -27.5 29.5t-15.5 52.5 q0 54 43 73.5t143 19.5q148 0 242 75t94 181q0 50 -14.5 94.5t-47.5 86t-96 66.5t-149 25q-74 0 -135 -24t-96.5 -58t-59.5 -73t-32.5 -66t-8.5 -41q-7 0 -27.5 12t-42.5 43.5t-22 71.5q0 54 31.5 96.5t78 67t107 40.5t110.5 21.5t95 5.5q109 0 193 -22.5t134 -57.5 t81.5 -84t43 -95.5t11.5 -98.5q0 -96 -67.5 -178t-156.5 -123q117 -29 203 -123.5t86 -231.5q0 -195 -138.5 -301t-365.5 -106q-121 0 -222.5 26t-166.5 79t-65 124z" />
<glyph unicode="&#x418;" horiz-adv-x="1552" d="M82 1327v59h461v-59h-45q-33 0 -61.5 -25t-28.5 -73v-944q44 67 259 390t291 443q68 106 115.5 160t100 81t120.5 27h154v-59h-51q-50 0 -81.5 -28.5t-31.5 -84.5v-1028q0 -54 38.5 -89.5t84.5 -35.5h66v-61h-472v61h43q39 0 66 30.5t27 66.5v1005q-159 -240 -437.5 -654 t-308.5 -452q-38 -46 -66.5 -66t-68.5 -20q-31 0 -56.5 19t-29.5 53q4 2 9.5 6t21 19t27 31.5t21 43.5t9.5 56v1015q0 61 -35 87t-86 26h-55z" />
<glyph unicode="&#x419;" horiz-adv-x="1552" d="M82 1327v59h461v-59h-45q-33 0 -61.5 -25t-28.5 -73v-944q44 67 259 390t291 443q68 106 115.5 160t100 81t120.5 27h154v-59h-51q-50 0 -81.5 -28.5t-31.5 -84.5v-1028q0 -54 38.5 -89.5t84.5 -35.5h66v-61h-472v61h43q39 0 66 30.5t27 66.5v1005q-159 -240 -437.5 -654 t-308.5 -452q-38 -46 -66.5 -66t-68.5 -20q-31 0 -56.5 19t-29.5 53q4 2 9.5 6t21 19t27 31.5t21 43.5t9.5 56v1015q0 61 -35 87t-86 26h-55zM512 1593q0 39 30.5 69t57.5 30q12 0 12 -13q0 -16 10.5 -38.5t31 -47.5t60.5 -42t91 -17q46 0 85 19.5t62 47.5t39.5 56t22.5 47 l6 20q4 -1 11.5 -3t26 -11t33 -21.5t26 -35.5t11.5 -51q0 -69 -94.5 -113.5t-226.5 -44.5q-127 0 -211 42t-84 107z" />
<glyph unicode="&#x41a;" horiz-adv-x="1380" d="M82 0v61h59q39 0 72 30t33 71v1071q0 38 -25 59t-67 21h-72v73h446v-73h-55q-42 0 -61 -23t-19 -57v-465h111q183 0 295 160q30 41 76 114.5t77.5 128t34.5 60.5q17 38 17 57q0 36 -52 39h-30v59h391v-59h-31q-48 0 -85 -34.5t-73 -92.5q-7 -12 -40 -65.5t-60.5 -97.5 t-70 -104t-78 -101t-76 -71.5t-72.5 -31.5q76 -15 173 -101.5t155 -211.5q163 -334 280 -334v-12q0 -84 -121 -84q-31 0 -58 12t-45.5 27.5t-41.5 50.5t-36.5 59t-39.5 76t-41 81t-46 83.5t-56 87.5t-64 75t-75.5 66t-84.5 41t-98 17q-135 0 -135 -58v-442q0 -35 20.5 -68 t61.5 -33h68v-61h-461z" />
<glyph unicode="&#x41b;" horiz-adv-x="1253" d="M20 98q0 95 107 305q98 193 144 286t110.5 230t91.5 214.5t27 117.5q0 31 -9 53t-23.5 32t-24 13.5t-19.5 4.5q0 19 31 40t82 21q46 0 82.5 -17.5t62.5 -52t43 -69t35 -84.5l366 -1012q21 -58 57 -88.5t66 -30.5h51v-61h-442v61h49q28 1 45 17t17 39q0 24 -8 45l-105 297 q-16 46 -107.5 317.5t-132.5 382.5q-26 -79 -111.5 -276.5t-197.5 -423.5q-44 -88 -78 -179.5t-34 -142.5q0 -55 14 -88t37 -35q0 -6 -11.5 -17t-40.5 -21.5t-67 -10.5q-34 0 -57 15t-33 38.5t-13.5 42.5t-3.5 37z" />
<glyph unicode="&#x41c;" horiz-adv-x="2068" d="M72 0v61h37q73 0 110 45t41 95l92 1007q0 54 -33 86.5t-92 32.5h-53v59h229q90 0 135.5 -36t90.5 -138q219 -497 407 -972q78 181 194.5 484t178.5 447q9 21 13 29t19 35.5t26.5 42.5t33 38.5t42.5 36.5t50.5 23t61.5 10h229v-59h-69q-52 0 -82.5 -22.5t-30.5 -65.5 q5 -85 102 -1030q7 -67 49.5 -107.5t98.5 -40.5h47v-61h-447v61h23q40 0 56 28t16 65q0 4 -31 329q-8 87 -21 227t-23 243.5t-13 146.5q0 59 -3 59q-9 0 -159 -375q-10 -26 -45.5 -113t-56.5 -138.5t-55 -132.5t-67 -157t-67 -149q-43 -94 -139 -94q-23 0 -40.5 10t-17.5 19 q13 26 13 71q0 43 -50 171.5t-147.5 347t-103.5 233.5q-131 311 -138 311q-8 0 -45 -470t-37 -515q0 -117 74 -117h23v-61h-426z" />
<glyph unicode="&#x41d;" horiz-adv-x="1552" d="M92 0v61h62q52 0 76 32.5t24 84.5v1045q0 48 -23 76t-71 28h-68v59h473v-59h-73q-47 0 -68 -30t-21 -68v-400q0 -4 0.5 -10t7.5 -16t19 -10h684q33 0 33 34v396q0 50 -24.5 77t-63.5 27h-74v59h488v-59h-76q-43 0 -72 -27t-29 -71v-1051q0 -47 25.5 -82t81.5 -35h70v-61 h-488v61h53q35 0 59 14.5t33.5 36.5t13 37.5t3.5 28.5v463q0 32 -33 37h-684q-12 0 -18.5 -8.5t-7.5 -17.5l-1 -9v-465q0 -48 23.5 -82.5t75.5 -34.5h63v-61h-473z" />
<glyph unicode="&#x41e;" horiz-adv-x="1544" d="M82 688q0 210 79 373.5t234 258.5t363 95q166 0 298.5 -57t216 -156.5t127.5 -230.5t44 -283q0 -146 -46 -276.5t-130.5 -230t-215 -158t-288.5 -58.5q-190 0 -347 97t-246 263t-89 363zM248 688q0 -124 35 -235t100 -197t164.5 -136.5t220.5 -51.5q155 0 272.5 83 t177.5 223t60 314q0 178 -59 319t-179.5 226.5t-285.5 85.5q-127 0 -226 -54t-158 -145t-89.5 -200.5t-32.5 -231.5z" />
<glyph unicode="&#x41f;" horiz-adv-x="1548" d="M96 0v61h49q35 0 59.5 13t35 32.5t14.5 34.5t4 27v1044q0 115 -106 115h-56v59h1344v-59h-70q-90 0 -90 -108v-1051q0 -16 7 -38.5t30.5 -45.5t58.5 -23h80v-61h-487v61h53q59 0 83.5 32t24.5 75v1042q0 44 -11.5 60t-49.5 16h-606q-31 0 -43 -13.5t-12 -55.5v-1049 q0 -107 110 -107h51v-61h-473z" />
<glyph unicode="&#x420;" horiz-adv-x="1236" d="M80 0v61h63q47 0 80 28.5t33 68.5v1056q0 53 -33 82t-90 29h-53v61h172q100 1 228 17t206 16q111 0 198.5 -25.5t143.5 -68.5t92.5 -102.5t52 -124t15.5 -137.5q0 -192 -134 -324.5t-329 -132.5q-89 0 -154 31t-65 92q0 28 24.5 51t59.5 24q0 -12 7 -27.5t22 -33 t46 -29.5t72 -12q94 0 163.5 52.5t101.5 131t32 168.5q0 54 -11 104.5t-38.5 100t-69 86.5t-108.5 59.5t-152 22.5q-69 0 -142 -19.5t-107 -50.5v-1069q0 -38 13.5 -64t36.5 -38.5t45.5 -17.5t47.5 -5h57v-61h-526z" />
<glyph unicode="&#x421;" horiz-adv-x="1323" d="M88 684q0 114 24 213t65.5 171.5t98 131.5t119.5 98t133.5 65t136.5 37t130 11q223 0 349 -63t126 -189q0 -81 -35.5 -124.5t-73.5 -43.5q-12 0 -16 2q0 91 -25.5 153.5t-75 96.5t-110 48t-143.5 14q-67 0 -138.5 -22t-144 -71.5t-129 -119.5t-92 -174.5t-35.5 -227.5 q0 -121 31.5 -225t82.5 -174.5t116.5 -121t133 -74t132.5 -23.5q150 0 245.5 51t161.5 174q42 0 67 -28t25 -72q0 -74 -72 -128t-181 -79t-236 -25q-61 0 -123.5 11.5t-129 37.5t-126.5 65t-113.5 97.5t-92.5 130.5t-62 169t-23 208z" />
<glyph unicode="&#x422;" horiz-adv-x="1116" d="M12 1264q0 78 60 110q45 23 190 23q28 0 121 -3t174 -3q19 0 209 5t221 5q63 0 89 -30t26 -71q0 -28 -2.5 -57t-10 -65.5t-25 -59t-42.5 -22.5q0 33 -7 61t-17.5 47.5t-29.5 35.5t-35 25.5t-42.5 16.5t-44 10.5t-48 5.5t-45.5 2h-44q-78 0 -78 -86v-1034q0 -49 35 -84 t90 -35h75v-61h-546v61h69q49 0 88 33t39 86v1026q0 46 -17 71.5t-65 25.5q-55 0 -101 -7.5t-77 -17.5t-56 -27.5t-38 -30t-25 -33.5t-15 -29.5t-9 -24.5q-21 0 -43.5 44t-22.5 87z" />
<glyph unicode="&#x423;" horiz-adv-x="1241" d="M-43 1313q0 42 36 71t99 29q35 0 62.5 -6.5t55 -27t48.5 -43.5t50 -70.5t52 -93t61 -126t71.5 -154t88.5 -193t107 -228.5q84 196 179.5 454t95.5 304q0 45 -35 71.5t-84 26.5h-43v59h499v-59h-26q-109 0 -168 -143q-50 -120 -102 -251t-87 -225t-73 -193.5t-67 -167.5 t-62.5 -135t-64.5 -109t-68.5 -75.5t-79.5 -48t-92 -14.5q-82 0 -136.5 33t-54.5 96q0 26 10.5 47.5t24.5 34t29 21.5t24.5 12.5t11.5 3.5q0 -65 29.5 -107.5t61.5 -42.5q28 0 55.5 16t47 37t40 54.5t30 53.5t22.5 50l13 31q2 4 -68.5 150t-164 330t-145.5 276 q-28 50 -43 75.5t-38.5 60.5t-41.5 51.5t-43.5 34t-53.5 24t-63 6.5z" />
<glyph unicode="&#x424;" horiz-adv-x="1662" d="M84 678q0 195 83 354t236.5 253t350.5 99v21q0 78 -103 78h-59v59h467v-59h-60q-40 0 -68 -18.5t-28 -49.5v-33q130 -2 239 -39.5t187 -102t132 -152.5t80 -191.5t26 -218.5q0 -123 -37.5 -231.5t-102 -188t-149 -137.5t-180.5 -88t-195 -33q-2 -79 -65 -130.5 t-215 -51.5v61q123 0 131 121q-125 4 -243.5 52t-214 131.5t-154 212.5t-58.5 282zM246 678q0 -151 65 -285t183 -218t260 -87v1206q-115 -5 -212.5 -61t-161 -143.5t-99 -194.5t-35.5 -217zM903 84q153 5 268 86t174.5 213t59.5 295q0 123 -33 231.5t-95 193t-158.5 136 t-215.5 55.5v-1210z" />
<glyph unicode="&#x425;" horiz-adv-x="1343" d="M-20 0v61h59q50 0 104.5 37t127.5 130.5t117.5 158.5t140.5 211q44 68 67 102l-317 494q-91 133 -199 133h-49v59h530v-59h-53q-36 0 -61 -14.5t-25 -44.5q0 -20 27 -66t102 -160.5t133 -210.5q128 210 185 310t57 127q0 59 -92 59h-39v59h499v-59h-47 q-53 0 -103.5 -35.5t-90.5 -99.5q-183 -295 -303 -471q172 -278 272 -434q78 -118 146 -175t110 -57h41q-1 -4 -3 -10t-12 -22t-23 -28t-38.5 -22t-56.5 -10q-119 0 -217 141q-24 35 -52.5 80t-55 88t-85 138.5t-112.5 183.5q-37 -56 -73.5 -111t-60 -90.5t-46.5 -70 t-36.5 -55t-26 -40.5t-18.5 -31t-11.5 -21.5t-7 -18t-2.5 -14t-1 -15.5q0 -30 25 -48t63 -18h96v-61h-585z" />
<glyph unicode="&#x426;" horiz-adv-x="1536" d="M86 0v61h57q34 0 57.5 13.5t32.5 34.5t12 36t3 29v1045q0 13 -3 27t-13 34.5t-34.5 33.5t-60.5 13h-51v59h473v-59h-72q-29 0 -48.5 -13t-27.5 -33t-11 -34.5t-3 -27.5v-1016q0 -50 17.5 -76.5t60.5 -26.5h563q27 0 44.5 8.5t25 25.5t10 33.5t2.5 41.5v1010q0 11 -1 20.5 t-6.5 27t-16 29.5t-32 21.5t-50.5 9.5h-56v59h488v-59h-78q-30 0 -51 -13t-30.5 -33t-13 -35t-3.5 -27v-1031q0 -35 18.5 -68.5t46.5 -33.5q44 0 75.5 -11t47.5 -26t25 -40t10.5 -43.5t1.5 -45.5q0 -69 -15.5 -117t-33 -65t-33.5 -17q-3 0 -3.5 15.5t-3 40t-9.5 54t-27 59.5 t-50.5 54.5t-85.5 40t-126 15.5h-1022z" />
<glyph unicode="&#x427;" horiz-adv-x="1253" d="M-57 1327v59h426v-59h-37q-113 0 -113 -119v-223q1 -202 77.5 -288.5t233.5 -86.5q102 0 204 56t102 122v453q0 45 -26.5 65.5t-64.5 20.5h-38v59h440v-59h-53q-51 0 -81 -28.5t-30 -77.5v-1039q0 -56 23 -88.5t69 -32.5h72v-61h-514v61h49q73 0 113.5 37t40.5 105v415 q-58 -48 -144.5 -78t-181.5 -30q-226 0 -330.5 114t-105.5 363v215q0 71 -24 98t-83 27h-24z" />
<glyph unicode="&#x428;" horiz-adv-x="1970" d="M98 0v61h47q42 0 70 22t36.5 45t8.5 44v1057q0 12 -4 25.5t-14 31.5t-34.5 29.5t-60.5 11.5h-49v59h471v-59h-73q-34 0 -55 -21t-26 -40.5t-5 -36.5v-1036q0 -47 17.5 -70t59.5 -23h324q29 0 49 12.5t29 31.5t12.5 33.5t3.5 27.5v1024q0 45 -27 71.5t-83 26.5h-52v59h474 v-59h-74q-32 0 -60 -29.5t-28 -68.5v-1028q0 -101 88 -101h323q46 0 64 26t18 73v1030q0 42 -28 70t-80 28h-54v59h486v-59h-78q-48 0 -72 -35t-24 -63v-1053q0 -42 31.5 -78.5t85.5 -36.5h43v-61h-1760z" />
<glyph unicode="&#x429;" horiz-adv-x="1974" d="M98 0v61h47q42 0 70 22t36.5 45t8.5 44v1057q0 12 -4 25.5t-14 31.5t-34.5 29.5t-60.5 11.5h-49v59h471v-59h-73q-34 0 -55 -21t-26 -40.5t-5 -36.5v-1036q0 -47 17.5 -70t59.5 -23h324q29 0 49 12.5t29 31.5t12.5 33.5t3.5 27.5v1024q0 45 -27 71.5t-83 26.5h-52v59h474 v-59h-74q-32 0 -60 -29.5t-28 -68.5v-1028q0 -101 88 -101h323q46 0 64 26t18 73v1030q0 42 -28 70t-80 28h-54v59h486v-59h-78q-48 0 -72 -35t-24 -63v-1071q0 -72 55 -72q44 0 76 -11t49 -26.5t26.5 -39.5t12 -43.5t2.5 -45.5q0 -69 -15.5 -117t-33 -65t-33.5 -17 q-3 0 -3.5 15.5t-3 40t-9 54t-26 59.5t-49.5 54.5t-84.5 40t-125.5 15.5h-1438z" />
<glyph unicode="&#x42a;" horiz-adv-x="1294" d="M-25 1198q0 188 312 188h368v-59h-49q-22 0 -43.5 -4t-49 -14.5t-44 -35.5t-16.5 -61v-1077q31 -32 93 -47.5t124 -15.5q86 0 156 22.5t115.5 59t76.5 85.5t44 100t13 105q0 143 -68 235.5t-194 92.5q-36 0 -68.5 -9t-53.5 -22.5t-37 -28t-23.5 -24.5t-7.5 -14 q-19 4 -32 25.5t-13 43.5q0 125 239 125q173 0 291.5 -117t118.5 -309q0 -91 -31 -171t-93.5 -146.5t-168.5 -105.5t-244 -39q-70 0 -190 10t-176 10h-197v61h63q57 0 85 36t28 73v1067q0 30 -12 43.5t-45 13.5q-75 0 -138 -68.5t-63 -144.5q-27 0 -48.5 34.5t-21.5 82.5z " />
<glyph unicode="&#x42b;" horiz-adv-x="1748" d="M86 0v61h64q56 0 83 36t27 73v1059q0 50 -31 74t-69 24h-74v59h520v-59h-61q-20 0 -40 -4.5t-43 -17t-37.5 -39.5t-14.5 -66v-1065q39 -31 100 -47t119 -16q106 0 187 33.5t126.5 89t67.5 118.5t22 131q0 144 -68 239t-194 95q-36 0 -67.5 -9t-51.5 -21t-35 -25.5 t-21.5 -22.5t-6.5 -12q-19 2 -39.5 19.5t-20.5 46.5q0 35 26.5 60.5t68 37.5t79 17t72.5 5q172 0 291 -119.5t119 -312.5q0 -89 -33.5 -170.5t-97.5 -147.5t-168.5 -105t-235.5 -39q-79 0 -185 10t-183 10h-195zM1186 1327v59h465v-59h-68q-38 0 -63 -26t-25 -62v-1065 q0 -52 31 -82.5t67 -30.5h58v-61h-463v61h57q48 0 74.5 32t26.5 81v1065q0 41 -29 64.5t-72 23.5h-59z" />
<glyph unicode="&#x42c;" horiz-adv-x="1249" d="M82 0v61h63q56 0 83.5 36t27.5 73v1059q0 50 -31 74t-69 24h-74v59h520v-59h-61q-20 0 -40 -4.5t-43 -17t-37.5 -39.5t-14.5 -66v-1065q39 -31 100 -47t119 -16q106 0 187 33.5t126.5 89t67.5 118.5t22 131q0 144 -68 239t-194 95q-36 0 -67.5 -9t-51.5 -21t-35 -25.5 t-21.5 -22.5t-6.5 -12q-19 2 -39.5 19.5t-20.5 46.5q0 35 26.5 60.5t68 37.5t79 17t72.5 5q172 0 291 -119.5t119 -312.5q0 -89 -33.5 -170.5t-97.5 -147.5t-168.5 -105t-235.5 -39q-79 0 -185.5 10t-183.5 10h-194z" />
<glyph unicode="&#x42d;" horiz-adv-x="1349" d="M94 1104q0 92 80 164t199.5 107.5t249.5 35.5q95 0 183 -22.5t173 -76t147 -134.5t100 -208t38 -286q0 -120 -25 -222.5t-66 -175t-97 -130t-115.5 -93t-125 -59t-121.5 -32.5t-108 -9q-90 0 -170.5 15t-147 44.5t-106 80t-39.5 116.5q0 41 31.5 74t63.5 33 q41 -121 135 -187.5t237 -66.5q59 0 121 17.5t127 60.5t115.5 106t83.5 164t35 225h-359q-30 0 -48 -0.5t-51 -3t-55.5 -8.5t-48.5 -15.5t-43.5 -26t-27.5 -38.5q-21 0 -47.5 32.5t-26.5 69.5q0 21 10 37.5t24.5 27.5t39 18.5t45 11t52.5 5.5t50.5 2.5t48.5 0.5h432 q-2 117 -30 212t-72 156.5t-103.5 102.5t-121.5 58.5t-127 17.5q-80 0 -151 -19t-128.5 -57t-91 -101.5t-33.5 -144.5q-55 0 -95 35.5t-40 85.5z" />
<glyph unicode="&#x42e;" horiz-adv-x="1998" d="M98 0v61h49q34 0 58.5 11.5t35 29t15 31.5t4.5 25v1085q0 12 -3.5 23.5t-13 26.5t-32.5 24.5t-57 9.5h-56v59h432v-59h-45q-31 0 -53 -18t-22 -60v-399q0 -2 0.5 -6t3.5 -14t7.5 -17.5t13.5 -13.5t20 -6h100q30 281 204.5 451.5t459.5 170.5q166 0 297 -57t213 -156.5 t124.5 -230t42.5 -283.5q0 -146 -44.5 -276t-127.5 -230t-212 -158.5t-287 -58.5q-188 0 -342.5 96t-242.5 259t-91 358h-94q-19 0 -30.5 -14t-12.5 -28l-2 -13v-465q0 -47 26.5 -72t59.5 -25h34v-61h-432zM711 688q0 -124 34.5 -235t98.5 -197t163.5 -136.5t221.5 -51.5 q155 0 271.5 83.5t175.5 223t59 313.5q0 132 -34 246.5t-98.5 200.5t-164.5 135t-224 49q-128 0 -226.5 -54t-157 -145t-88 -200.5t-31.5 -231.5z" />
<glyph unicode="&#x42f;" horiz-adv-x="1388" d="M-25 55q61 0 117 69t127 200q73 139 159 218.5t157 92.5q-55 11 -111 41.5t-106.5 77.5t-82.5 116.5t-32 147.5q0 173 131 286t368 113q77 0 194.5 -15.5t199.5 -15.5h194v-59h-67q-47 0 -78 -24.5t-31 -67.5v-1069q0 -46 30.5 -75.5t76.5 -29.5h69v-61h-514v61h74 q53 0 84 29t31 76v1094q-33 33 -107 49t-143 16q-89 0 -160 -30.5t-110.5 -78.5t-58.5 -101.5t-15 -104.5q21 -278 422 -316q-17 -46 -34.5 -68t-36.5 -28t-40.5 -7.5t-53 -15.5t-68 -43.5t-91 -100.5t-117.5 -177q-11 -18 -36 -61.5t-36.5 -62t-34 -52t-38 -48.5t-37 -34 t-44 -26t-46.5 -7q-47 0 -76 25.5t-29 66.5z" />
<glyph unicode="&#x430;" horiz-adv-x="1093" d="M88 262q0 74 28 129t75.5 89t118.5 54.5t147 28.5t172 8h131v97q0 26 -1 44t-5.5 47.5t-13 50.5t-26 45.5t-41.5 39.5t-61 25t-84 10q-71 0 -124 -22.5t-81 -59.5t-40.5 -75.5t-12.5 -78.5q-4 0 -11 1t-24 7t-30 16.5t-24 32.5t-11 52q0 93 102 154t256 61 q179 0 274 -80.5t95 -269.5v-461q0 -76 24 -115t80 -39h31v-53h-104q-47 0 -80.5 13t-50 30t-25.5 43.5t-10.5 43t-1.5 40.5v313h-133q-198 0 -297 -51.5t-99 -171.5q0 -92 59 -141t134 -49q38 0 72.5 9.5t55.5 23t37 27t23 22.5l6 10q9 0 26.5 -19t17.5 -39 q0 -118 -244 -118q-41 0 -83.5 8.5t-87.5 29.5t-79.5 51.5t-57 79t-22.5 107.5z" />
<glyph unicode="&#x431;" horiz-adv-x="1101" d="M88 557q0 93 14.5 172t40 142t67.5 118t91 98t116.5 83.5t137 73t160.5 67.5q55 21 101 46t68.5 43.5t22.5 26.5q2 0 5.5 -1t12.5 -6t15.5 -12.5t12 -24t5.5 -37.5q0 -27 -13.5 -49.5t-31.5 -38t-51 -31.5t-57 -25t-64 -22q-188 -61 -256 -96q-132 -68 -188 -183 q-61 -125 -61 -344q0 -123 26.5 -218.5t72 -152.5t103 -85.5t123.5 -28.5q77 0 137 31t96.5 84t55 119.5t18.5 142.5q0 165 -62 260.5t-190 95.5q-122 0 -223 -88q-6 27 -6 65q0 14 10 31t33.5 36t72 31.5t115.5 12.5q109 0 187.5 -36t122 -100t63 -139.5t19.5 -166.5 q0 -86 -27 -167t-80 -149t-141.5 -109.5t-200.5 -41.5q-221 0 -347 147t-126 426z" />
<glyph unicode="&#x432;" horiz-adv-x="1122" d="M141 358v484q0 139 39 246.5t104.5 170.5t144.5 95t167 32q160 0 254 -82t94 -229q0 -177 -170 -287q107 -32 186.5 -134t79.5 -246q0 -82 -30.5 -157.5t-87 -135t-144.5 -95.5t-194 -36q-220 0 -331.5 97t-111.5 277zM274 358q0 -75 26.5 -131.5t72 -89.5t98.5 -49 t113 -16q131 0 224 98t93 236q0 82 -31 153t-99.5 118.5t-162.5 47.5q-68 0 -162 -59q-18 14 -18 67q0 72 109 72q107 0 188.5 74.5t81.5 195.5q0 111 -59.5 167t-153.5 56q-44 0 -83.5 -9t-84.5 -39t-77 -78t-53.5 -133.5t-21.5 -198.5v-482z" />
<glyph unicode="&#x433;" horiz-adv-x="942" d="M80 219q0 64 34 115.5t88.5 86t120 63.5t131 55.5t120 55.5t88.5 70.5t34 92.5q0 69 -59.5 114.5t-165.5 45.5q-264 0 -264 -238q-38 0 -72.5 26.5t-34.5 84.5q0 92 95 159.5t276 67.5q101 0 177 -23t117.5 -61.5t61 -82.5t19.5 -93q0 -61 -34 -113t-88.5 -88t-120 -67.5 t-131.5 -60.5t-120.5 -58.5t-88.5 -68t-34 -83.5q0 -70 63 -113t185 -43q49 0 91 11t70 28.5t50.5 38.5t35 42.5t20.5 39t11 28.5l3 11l9 -3t20.5 -10t25.5 -18t20 -28t9 -39q0 -83 -107 -138t-258 -55q-176 0 -286.5 66.5t-110.5 181.5z" />
<glyph unicode="&#x434;" horiz-adv-x="1220" d="M94 481q0 100 31 188t89.5 157t152.5 109t211 40q110 0 194 -42t121 -108v25q0 117 143 117h154v-54h-47q-64 0 -90.5 -32.5t-26.5 -118.5v-719q0 -96 -27.5 -180t-80 -149.5t-138 -103.5t-194.5 -38q-79 0 -144.5 13t-106.5 33.5t-69.5 47t-40.5 51t-12 47.5q0 29 11 51 t27.5 33t32.5 17.5t27 8.5l11 1q0 -36 16.5 -72.5t48 -68t83.5 -51t116 -19.5q146 0 226.5 102t80.5 265v493q0 158 -83 258.5t-235 100.5q-84 0 -150 -33.5t-105.5 -91.5t-59.5 -129t-20 -152q0 -86 28 -158.5t73 -119t99.5 -72t108.5 -25.5q118 0 186 64q5 -1 11.5 -4.5 t18 -19t11.5 -36.5q0 -44 -54.5 -71t-168.5 -27q-192 0 -325.5 134.5t-133.5 338.5z" />
<glyph unicode="&#x435;" horiz-adv-x="1097" d="M82 477q0 154 54.5 274.5t169 193.5t274.5 73q184 0 301.5 -117.5t117.5 -302.5q0 -37 -3.5 -63t-15 -42.5t-21.5 -25.5t-35.5 -13t-42 -4.5t-56.5 -0.5q-229 0 -307 -8t-123 -33q-11 11 -17.5 34t-6.5 35q0 22 14.5 36t45 19.5t54.5 7t66 1.5h250q34 0 48.5 12t14.5 43 q0 140 -74.5 236t-216.5 96q-87 0 -155.5 -38.5t-110 -103t-63 -143.5t-21.5 -166q0 -104 40.5 -197t118.5 -153.5t177 -60.5q71 0 127.5 17t94.5 48t58.5 56t41.5 59q24 -9 43.5 -34t19.5 -44q0 -76 -99 -134.5t-286 -58.5q-98 0 -179 30.5t-135 80.5t-92 115.5t-54.5 135 t-16.5 140.5z" />
<glyph unicode="&#x436;" horiz-adv-x="1486" d="M-47 57q61 0 112 49t138 189q26 43 59.5 82.5t62.5 64.5t54.5 44t40.5 28l14 8q-46 20 -87.5 60t-65.5 74.5t-56 88.5q-22 38 -31 52.5t-31 43t-40 40t-47.5 22t-63.5 10.5q21 70 117 70q53 0 99.5 -33t97.5 -127q41 -76 82.5 -129.5t76 -78t59.5 -34.5t46 -10h51v723 q0 92 -90 92h-55v54h116q166 0 166 -146v-723h25q94 0 163 54.5t140 160.5q22 31 22 68q0 26 -20.5 42.5t-50.5 18.5h-41v52h424v-52h-35q-29 0 -55 -11.5t-50 -36t-40.5 -45.5t-40.5 -56q-28 -41 -45.5 -64t-47 -57.5t-61.5 -60t-68 -45.5q39 -8 101 -68.5t127 -177.5 q81 -146 136 -194t118 -48q0 -40 -30.5 -64t-80.5 -24q-107 0 -217 207q-72 136 -114 189q-97 122 -222 122h-37v-323q0 -12 4 -27.5t13.5 -34t29.5 -31t47 -12.5h41v-53h-409v53h45q40 0 66 29.5t26 67.5v1v1v1v1v1v1v1v1v1v1v1v1v1v1v1v1v1v1v1v1v1v1v1v1v1v1v1v1v1v1v1v1 v1v1v1v1v1v1v1v1v1v1v1v1v1v1v1v1v1v1v1v1v1v1v1v1v1v1v1v1v1v1v1v1v1v2v1v1v1v1v1v1v1v2v1v1v1v1v1v2v1v1v1v1v2v1v1v1v2v1v1v1v2v1v1v2v1v1v1v2v1v1v2v1v1v2v1v1v2v1v1v2v1v2v1v1v2v1v2v1v1v2v1v2v1v2v1v1v2v1v2v1v2v1v2v1v2v1v2v1v2v1v2v1v2v1v2v2v1v2v1v2v1v2v1v2v2v1v2 v1v2v2v1v2v2v1v2v1v2v2v1v2v2v1v2v2v1v2v2v1v2v2v2v1v2v2v1v2v2v2v1v2v2v2v1v2v2v2v1v2v2v2v2v1v2v2v2v2v1v2v2v2v2v2v2v1v2v2v2v2v2v2v2v2v1v2v2v2v2v2v2v10h-49q-37 0 -75.5 -21.5t-69.5 -50.5t-72.5 -84.5t-67.5 -95.5t-71 -112q-21 -33 -35 -52t-36.5 -42.5t-48 -34.5 t-55.5 -11q-44 0 -76 19.5t-32 60.5z" />
<glyph unicode="&#x437;" horiz-adv-x="909" d="M61 727q0 30 10 61.5t36.5 66t67 61t108 44t153.5 17.5q84 0 149 -20.5t103.5 -52t63 -75.5t33 -85t8.5 -85q0 -108 -72 -187.5t-164 -119.5q132 -32 199 -135.5t67 -241.5q0 -69 -28.5 -140.5t-79 -131t-129.5 -97.5t-172 -38q-74 0 -136 17t-100.5 42t-65.5 55.5 t-38 57t-11 47.5q0 44 32 71t77 27q0 -105 74.5 -167t167.5 -62q45 0 90 18.5t86 54.5t66.5 100t25.5 146q0 85 -22.5 150t-80 108t-145.5 43q-93 0 -151 -53q-39 39 -39 78q0 74 116 84q37 0 76 10t78.5 32t70.5 53.5t50.5 80t19.5 105.5q0 96 -54.5 159.5t-164.5 63.5 q-66 0 -120 -27t-85.5 -70t-48 -91.5t-16.5 -96.5q-36 0 -70.5 34t-34.5 89z" />
<glyph unicode="&#x438;" horiz-adv-x="1212" d="M33 913v54h160q58 0 97.5 -37t39.5 -107v-463q0 -155 55 -228t166 -73q136 0 232 128.5t96 293.5v297q0 32 -2.5 49t-13 40.5t-38 34.5t-71.5 11v54h139q37 0 63 -13t37.5 -33.5t16 -37.5t4.5 -33v-680q0 -50 28.5 -83.5t94.5 -33.5h37v-53h-152q-66 0 -104.5 30 t-38.5 91v63q-47 -93 -139 -152t-210 -59q-174 0 -254.5 87t-80.5 233v483q0 137 -129 137h-33z" />
<glyph unicode="&#x439;" horiz-adv-x="1212" d="M33 913v54h160q58 0 97.5 -37t39.5 -107v-463q0 -155 55 -228t166 -73q136 0 232 128.5t96 293.5v297q0 32 -2.5 49t-13 40.5t-38 34.5t-71.5 11v54h139q37 0 63 -13t37.5 -33.5t16 -37.5t4.5 -33v-680q0 -50 28.5 -83.5t94.5 -33.5h37v-53h-152q-66 0 -104.5 30 t-38.5 91v63q-47 -93 -139 -152t-210 -59q-174 0 -254.5 87t-80.5 233v483q0 137 -129 137h-33zM315 1278q0 34 27.5 67t48.5 33q12 0 12 -8q0 -15 9 -37.5t26.5 -47t52 -41.5t78.5 -17q40 0 74 17.5t54 42t34 49t19 42.5l6 17q4 -1 10 -3t22.5 -11t29 -20t22.5 -31.5 t10 -45.5q0 -58 -82.5 -96.5t-196.5 -38.5q-110 0 -183 36.5t-73 92.5z" />
<glyph unicode="&#x43a;" horiz-adv-x="1101" d="M43 0v53h49q37 0 69 27.5t32 85.5v1098q0 122 -93 122h-55v54h117q43 0 75 -11t49.5 -27t27.5 -41t13 -47t3 -50v-693h88q93 0 160 53.5t139 161.5q22 31 22 68q0 26 -20.5 42.5t-50.5 18.5h-41v52h424v-52h-35q-37 0 -73.5 -24t-59 -51t-54.5 -74q-29 -42 -45.5 -64.5 t-46.5 -57t-61.5 -60t-67.5 -45.5q41 -8 109.5 -69t132.5 -177q81 -146 136 -194t118 -48q0 -40 -30.5 -64t-80.5 -24q-107 0 -217 207q-26 49 -49 86.5t-58 82t-70.5 73.5t-82.5 49t-98 20h-88v-317q0 -50 20.5 -80.5t61.5 -30.5h51v-53h-420z" />
<glyph unicode="&#x43b;" horiz-adv-x="937" d="M12 66q0 61 51 157q138 255 206.5 400.5t79.5 187t11 84.5q0 31 -21 56.5t-38 25.5q3 4 9.5 9.5t32 14.5t56.5 9q59 0 92 -29t64 -86q44 -108 130.5 -356.5t139.5 -380.5q20 -48 54.5 -76.5t68.5 -28.5h27v-53h-416v53h55q39 0 57.5 22.5t18.5 53.5q0 38 -233 692 q-35 -113 -82.5 -215.5t-106 -215t-94.5 -195.5q-27 -83 -27 -113q0 -27 10.5 -49t21.5 -31l11 -8q-38 -19 -75 -19q-103 0 -103 91z" />
<glyph unicode="&#x43c;" horiz-adv-x="1544" d="M33 0v53q70 0 105 17.5t46 76.5q34 196 65 414t34 275q0 45 -27 61t-84 16h-78v54h86q15 1 65 7.5t89 6.5q22 0 39 -2t32.5 -9.5t26 -13t23 -23.5t19.5 -28.5t20 -40t20.5 -47t24.5 -61t28 -70.5l211 -524q62 137 162 401.5t119 310.5q16 42 55.5 73.5t110.5 31.5 q31 0 85 -6t83 -6h57l-4 -54h-57q-25 0 -41.5 -3t-34 -12.5t-26.5 -30.5t-9 -54q8 -147 80 -641q8 -58 51 -88.5t98 -30.5v-53h-389v53q69 0 89 26.5t20 74.5q0 25 -17 164.5t-39 305.5t-24 181q-31 -73 -142 -351.5t-143 -365.5q-27 -61 -55.5 -86t-77.5 -25q-46 0 -51 35 q26 12 14 49q-25 68 -78 194t-99.5 233.5t-89.5 205t-44 99.5q-11 -59 -43.5 -321.5t-36.5 -326.5q0 -45 25 -68.5t94 -23.5v-53h-387z" />
<glyph unicode="&#x43d;" horiz-adv-x="1204" d="M45 0v53h45q62 0 89.5 36.5t27.5 76.5v614q0 72 -28 102.5t-87 30.5h-47v54h158q85 0 111 -35t26 -115v-258h539v215q0 139 -119 139h-43v54h164q78 0 104.5 -36.5t26.5 -111.5v-669q0 -34 23.5 -65.5t72.5 -31.5h68v-53h-459v53h53q39 0 65.5 23t35 46.5t8.5 41.5v293 h-539v-303q0 -13 4.5 -28t15 -32.5t34 -29t55.5 -11.5h53v-53h-457z" />
<glyph unicode="&#x43e;" horiz-adv-x="1155" d="M80 483q0 79 14 151t50.5 143.5t92 123t144.5 83.5t203 32q110 0 196 -32t140 -84t89.5 -123t49.5 -143t14 -151q0 -77 -15.5 -148t-52 -139.5t-91 -119t-139.5 -81t-191 -30.5q-105 0 -191 30.5t-143 81.5t-96.5 118.5t-56.5 139.5t-17 148zM219 483q0 -83 20 -156 t61.5 -134.5t114 -97.5t169.5 -36q92 0 162 36t110.5 97.5t60 134.5t19.5 156q0 67 -9.5 127t-34.5 118.5t-63.5 100t-101 67.5t-143.5 26t-145.5 -27t-104.5 -70t-67 -101.5t-37.5 -118t-10.5 -122.5z" />
<glyph unicode="&#x43f;" horiz-adv-x="1216" d="M47 0v53h53q33 0 64 25t31 65v664q0 111 -101 111h-47v49h135q82 0 112 -40t30 -110q44 75 134.5 131t207.5 56q177 0 266.5 -94t89.5 -248v-478q0 -48 28.5 -89.5t92.5 -41.5h28v-53h-131q-78 0 -116.5 51.5t-38.5 130.5v432q0 291 -240 291q-136 0 -225.5 -112 t-89.5 -301v-336q0 -41 20 -72t60 -31h41v-53h-404z" />
<glyph unicode="&#x440;" horiz-adv-x="1187" d="M37 913v52h162q59 0 98 -35.5t39 -91.5v-64q54 89 147 146t205 57q84 0 151.5 -21.5t112.5 -60.5t76.5 -87t48.5 -107.5t24 -115.5t7 -118q0 -92 -32 -182t-87 -162.5t-138 -117t-177 -44.5q-113 0 -166 30t-53 72q0 21 9.5 39t19.5 26l10 7l6 -9t19.5 -21t35 -26 t54 -20.5t73.5 -9.5q124 0 206.5 117t82.5 295q0 122 -28.5 215t-93.5 151t-161 58q-92 0 -174 -56.5t-130 -147.5t-48 -189v-746q0 -51 31.5 -88t93.5 -37h61v-55h-456v55h47q46 0 67 34t21 69v1069q0 120 -107 120h-57z" />
<glyph unicode="&#x441;" horiz-adv-x="978" d="M76 487q0 77 18 151t58 143t96.5 121t140 83t182.5 31q187 0 273 -46t86 -167q0 -68 -34.5 -99.5t-84.5 -31.5q0 72 -8.5 115.5t-34 76t-72 45.5t-121.5 13q-100 0 -181.5 -59t-126 -158.5t-44.5 -217.5q0 -176 97.5 -297.5t242.5 -121.5q53 0 99 14.5t74.5 32.5t56 48.5 t37.5 45.5t26 41q66 -37 66 -84q0 -32 -20 -63.5t-61 -61t-117.5 -48t-176.5 -18.5q-110 0 -201.5 44.5t-149 118t-89 164t-31.5 185.5z" />
<glyph unicode="&#x442;" horiz-adv-x="1773" d="M45 0v53h57q56 0 80.5 35t24.5 76v647q0 42 -26 74.5t-79 32.5h-57v49h168q70 0 97.5 -38.5t27.5 -109.5q36 77 119 133t182 56q225 0 295 -205q40 86 117 145.5t184 59.5q93 0 162.5 -28.5t108 -77t57 -106.5t18.5 -124v-500q0 -42 27 -80.5t73 -38.5h33v-53h-106 q-62 0 -100.5 29t-51 67.5t-12.5 87.5v408q0 169 -46.5 243t-162.5 74q-85 0 -148.5 -53t-94.5 -135t-31 -178v-387q0 -43 24 -73t78 -30h31v-53h-389v53h36q43 0 63.5 30.5t20.5 72.5v426q0 170 -45 248.5t-153 78.5q-74 0 -130 -33.5t-89 -93t-49.5 -133.5t-16.5 -162 v-331q0 -43 23 -73t77 -30h31v-53h-428z" />
<glyph unicode="&#x443;" horiz-adv-x="1003" d="M-63 913q0 29 32 47.5t76 18.5q64 0 98 -32t60 -99q16 -42 111 -328t118 -340q35 -83 90 -96q84 226 163 464.5t79 293.5q0 37 -33.5 54t-126.5 17v54h424v-54q-97 0 -139 -133q-53 -166 -275 -790q-33 -95 -66 -163.5t-78 -131t-103.5 -95t-128.5 -32.5 q-113 0 -170.5 53t-57.5 119q0 28 11.5 50t28 34t33.5 19.5t29 9.5l11 2q0 -201 129 -201q33 0 63.5 20t51.5 46.5t42.5 70t33.5 74.5t28 76t21 59q-52 0 -97.5 38t-75.5 103q-43 94 -130 341t-99 278q-13 34 -22.5 53.5t-27.5 46.5t-44 40t-59 13z" />
<glyph unicode="&#x444;" horiz-adv-x="1531" d="M78 475q0 134 53.5 245t151.5 177t221 66q43 0 68.5 -18t25.5 -54q0 -17 -6 -35q-23 21 -74 21q-133 0 -218 -114.5t-85 -287.5q0 -100 32 -187.5t96.5 -143.5t148.5 -56q93 0 145.5 58.5t52.5 132.5v985q0 57 -19.5 89.5t-72.5 32.5h-55v54h116q44 0 75 -10.5t48.5 -26 t27.5 -41.5t12.5 -49.5t2.5 -57.5v-399q34 52 94.5 80.5t137.5 28.5q85 0 153 -32t109.5 -82t69.5 -116t38.5 -128.5t10.5 -125.5q0 -126 -54 -237.5t-147.5 -178.5t-202.5 -67q-112 0 -112 65q0 24 13 37t23 13q0 -4 6.5 -10t25 -12.5t44.5 -6.5q103 0 183.5 113.5 t80.5 277.5q0 62 -9.5 122.5t-33.5 126.5t-75 107t-123 41q-103 0 -167.5 -74t-64.5 -182v-868q0 -51 31.5 -88t93.5 -37h62v-55h-457v55h47q46 0 67 34t21 69v358q-64 -84 -198 -84q-128 0 -224 68.5t-143 175t-47 231.5z" />
<glyph unicode="&#x445;" horiz-adv-x="925" d="M-47 0v53h41q18 0 37.5 6.5t39.5 21t38 29.5t39.5 40.5t37.5 44.5t39 51t36.5 51.5t37.5 54.5t35 51l63 91q-82 129 -188 270q-35 46 -52 65t-45 39.5t-60.5 26.5t-82.5 6q2 4 5 9.5t15.5 21t28 27t42 21t57.5 9.5q41 0 76 -19.5t56 -43t52 -66.5l172 -270 q162 223 162 270q0 53 -74 53h-43v54h418v-54h-35q-49 0 -81 -18.5t-64 -58.5q-92 -132 -228 -332q59 -89 217 -307q37 -53 73.5 -89t64.5 -50t43.5 -18.5t27.5 -4.5q4 0 -7 -15t-40.5 -30t-70.5 -15q-92 0 -166 109l-213 324q-53 -74 -178 -267q-17 -24 -17 -47 q0 -38 74 -41h47v-53h-430z" />
<glyph unicode="&#x446;" horiz-adv-x="1212" d="M29 913v54h168q66 0 97.5 -34.5t31.5 -86.5v-486q0 -155 55 -228t166 -73q96 0 174 68t117 163.5t39 190.5v307q0 54 -24 89.5t-79 35.5h-24v54h145q52 0 83.5 -29t31.5 -78v-647q0 -137 108 -137q35 0 57 -11t32.5 -33.5t14 -46.5t3.5 -61q0 -63 -13 -107t-35 -63 t-40.5 -26t-38.5 -7v142q0 21 -4 42t-14 43.5t-31 37t-50 14.5q-49 0 -85.5 27.5t-36.5 93.5v47q-55 -89 -139.5 -142t-190.5 -53q-357 0 -357 320v495q0 125 -120 125h-41z" />
<glyph unicode="&#x447;" horiz-adv-x="1146" d="M-25 913v54h158q66 0 97.5 -34.5t31.5 -86.5v-164q0 -154 53.5 -219.5t169.5 -65.5q122 0 209.5 84t87.5 201v129q0 14 -4 29t-13.5 32.5t-31 29t-51.5 11.5h-45v54h158q41 0 68.5 -17.5t38 -47t13.5 -48.5t3 -41v-657q0 -39 20 -71t70 -32h69v-53h-506v53h70 q77 0 109 29.5t32 71.5v278q-53 -58 -133.5 -90.5t-173.5 -32.5q-348 0 -348 316v163q0 28 -3.5 47t-13.5 38.5t-33.5 29.5t-60.5 10h-41z" />
<glyph unicode="&#x448;" horiz-adv-x="1804" d="M74 913v54h116q48 0 80 -16t47 -44.5t21 -57.5t6 -67v-420q0 -159 51 -225.5t158 -66.5q60 0 107.5 21t76 54.5t47.5 79t26 89t7 89.5v394q0 45 -22 80.5t-70 35.5h-43v54h117q44 0 75.5 -16t47.5 -44t23 -58.5t7 -66.5v-420q0 -159 50.5 -225.5t156.5 -66.5q60 0 107 23 t76.5 59t48.5 85.5t26.5 99t7.5 101.5v359q0 47 -20.5 81.5t-71.5 34.5h-43v54h117q48 0 80 -16t47 -44.5t21 -57.5t6 -67v-612q0 -49 34 -83t80 -34h49v-53h-139q-69 0 -109.5 30.5t-48.5 75.5q-94 -129 -276 -129q-236 0 -303 150q-37 -69 -112.5 -109.5t-182.5 -40.5 q-180 0 -263 85t-83 221v514q0 116 -90 116h-43z" />
<glyph unicode="&#x449;" horiz-adv-x="1759" d="M53 913v54h117q48 0 80 -16t47 -44.5t21 -57.5t6 -67v-420q0 -159 50.5 -225.5t157.5 -66.5q60 0 107.5 21t76.5 54.5t48 78.5t26 89t7 90v394q0 45 -22 80.5t-70 35.5h-43v54h116q84 0 119 -53.5t35 -131.5v-420q0 -159 50.5 -225.5t156.5 -66.5q60 0 107 23t76.5 59 t48.5 85.5t26.5 99t7.5 101.5v359q0 47 -20.5 81.5t-71.5 34.5h-43v54h116q48 0 80 -16t47 -44.5t21 -57.5t6 -67v-612q0 -46 30 -70t68 -24q35 0 57 -11t32.5 -33.5t14 -46.5t3.5 -61q0 -63 -13 -107t-35 -63t-40.5 -26t-38.5 -7v142q0 29 -6.5 57t-30 54t-61.5 26 q-24 0 -40.5 3t-35 13t-28 32.5t-9.5 57.5q-94 -129 -277 -129q-236 0 -303 150q-37 -69 -112.5 -109.5t-182.5 -40.5q-180 0 -263 85t-83 221v514q0 116 -90 116h-43z" />
<glyph unicode="&#x44a;" horiz-adv-x="1093" d="M-25 807q0 78 58 123t168 45q29 0 89.5 -4t102.5 -4h129v-54h-39q-52 0 -81 -27t-29 -77v-434q0 -155 75.5 -230t188.5 -75q122 0 193 84.5t71 203.5q0 117 -50.5 188.5t-160.5 71.5q-94 0 -176 -86q-17 20 -24 33t-7 33q0 42 54.5 72t152.5 30q151 0 248.5 -87.5 t97.5 -254.5q0 -70 -24.5 -135.5t-71.5 -119.5t-125.5 -86.5t-177.5 -32.5q-197 0 -298 105t-101 286q2 352 2 473q0 43 -37 43q-22 0 -44 -7.5t-45 -24.5t-37 -51.5t-14 -82.5q-18 0 -30 2t-27 9.5t-23 25t-8 45.5z" />
<glyph unicode="&#x44b;" horiz-adv-x="1400" d="M-18 913v54h444v-54h-39q-111 0 -111 -114v-424q0 -80 22 -140.5t59.5 -95.5t84 -52t99.5 -17q122 0 193 84.5t71 203.5q0 117 -50.5 188.5t-160.5 71.5q-94 0 -176 -86q-17 20 -24 33t-7 33q0 42 54.5 72t152.5 30q151 0 248.5 -87.5t97.5 -254.5q0 -70 -24.5 -135.5 t-71.5 -119.5t-125.5 -86.5t-177.5 -32.5q-197 0 -298.5 105t-101.5 286q2 307 2 428q0 40 -22.5 75t-77.5 35h-61zM915 -2v53h50q42 0 76 28.5t34 84.5v641q0 106 -104 106h-49v54h141q83 0 115 -39.5t32 -120.5v-641q0 -53 35.5 -83t75.5 -30h49v-53h-455z" />
<glyph unicode="&#x44c;" horiz-adv-x="1007" d="M-16 913v54h444v-54h-39q-110 0 -110 -114v-424q0 -155 75.5 -230t188.5 -75q122 0 193 84.5t71 203.5q0 117 -50.5 188.5t-160.5 71.5q-94 0 -176 -86q-17 20 -24 33t-7 33q0 42 54.5 72t152.5 30q151 0 248.5 -87.5t97.5 -254.5q0 -70 -24.5 -135.5t-71.5 -119.5 t-125.5 -86.5t-177.5 -32.5q-197 0 -298.5 105t-101.5 286q2 307 2 428q0 40 -22.5 75t-77.5 35h-61z" />
<glyph unicode="&#x44d;" horiz-adv-x="995" d="M45 180q0 28 16 51t39 31q118 -194 336 -194q139 0 230 106.5t102 263.5h-354q-36 0 -75.5 -10t-60.5 -20l-22 -11q0 72 33 107q31 31 125 31h317q37 0 37 14q-3 70 -22 132.5t-54.5 115.5t-95.5 84.5t-137 31.5q-129 0 -215 -62.5t-86 -178.5q-48 0 -75.5 29t-27.5 75 q0 18 7 42t33 58t67 61.5t118 47t177 19.5q104 0 184.5 -32.5t128.5 -83.5t79 -121.5t42.5 -139t11.5 -144.5q0 -71 -15.5 -140t-52 -135t-89 -115.5t-132.5 -80t-178 -30.5q-185 0 -288 61t-103 137z" />
<glyph unicode="&#x44e;" horiz-adv-x="1490" d="M43 0v53h49q37 0 69 27.5t32 85.5v1098q0 122 -93 122h-55v54h117q43 0 75 -11t49.5 -27t27.5 -41t13 -47t3 -50v-693h129q2 33 13.5 74t33.5 93t60.5 100t88 88.5t123 65t158.5 24.5q103 0 184.5 -32t132 -84t84 -123t47 -143t13.5 -151q0 -75 -16.5 -147t-53.5 -138.5 t-90.5 -116.5t-133.5 -80t-177 -30q-116 0 -208 47.5t-146.5 124t-83.5 163t-31 175.5h-127v-317q0 -50 20.5 -80.5t61.5 -30.5h51v-53h-420zM594 500q0 -82 20.5 -159t59.5 -141.5t104.5 -103.5t147.5 -39q86 0 151.5 36.5t103.5 98t57 135.5t19 156q0 86 -15 159 t-49.5 138.5t-100 103.5t-156.5 38q-73 0 -132.5 -26t-98 -68t-64 -98.5t-36.5 -113.5t-11 -116z" />
<glyph unicode="&#x44f;" horiz-adv-x="1120" d="M-23 53q55 6 115.5 54t97.5 110q48 86 93.5 137.5t76.5 67.5q-35 11 -72 33t-73.5 54.5t-60 79.5t-23.5 99q0 56 20.5 107t65.5 97t130 73.5t202 27.5q81 0 176 -13t170 -13h170v-54h-49q-54 0 -79.5 -31.5t-25.5 -58.5v-649q0 -46 27 -83.5t78 -37.5h49v-53h-475v53h59 q63 0 96 38.5t33 82.5v674q-88 65 -227 65q-67 0 -119.5 -18.5t-80.5 -44.5t-46 -58t-23.5 -54.5t-5.5 -39.5q0 -95 72.5 -155t163.5 -60q40 0 72 6.5t44 13.5l11 7q16 -24 16 -49q0 -32 -28 -54t-78 -22q-45 0 -87 -30.5t-73.5 -76t-68 -98.5t-69.5 -98.5t-79.5 -76 t-97.5 -30.5q-97 0 -97 78z" />
<glyph unicode="&#x450;" horiz-adv-x="1056" d="M82 477q0 154 54.5 274.5t169 193.5t274.5 73q184 0 301.5 -117.5t117.5 -302.5q0 -37 -3.5 -63t-15 -42.5t-21.5 -25.5t-35.5 -13t-42 -4.5t-56.5 -0.5q-229 0 -307 -8t-123 -33q-11 11 -17.5 34t-6.5 35q0 22 14.5 36t45 19.5t54.5 7t66 1.5h250q34 0 48.5 12t14.5 43 q0 140 -74.5 236t-216.5 96q-87 0 -155.5 -38.5t-110 -103t-63 -143.5t-21.5 -166q0 -104 40.5 -197t118.5 -153.5t177 -60.5q71 0 127.5 17t94.5 48t58.5 56t41.5 59q24 -9 43.5 -34t19.5 -44q0 -76 -99 -134.5t-286 -58.5q-98 0 -179 30.5t-135 80.5t-92 115.5t-54.5 135 t-16.5 140.5zM377 1462q23 37 54 60.5t48 23.5q19 0 31 -26q4 -13 16.5 -54.5t20 -63t21.5 -55.5t30 -61.5t35 -50.5q5 -3 25 -23.5t20 -23.5q0 -8 -6 -14.5t-15 -6.5q-38 0 -106.5 60.5t-121 132t-52.5 102.5z" />
<glyph unicode="&#x451;" horiz-adv-x="1128" d="M92 477q0 154 54.5 274.5t169 193.5t274.5 73q184 0 302 -117.5t118 -302.5q0 -37 -3.5 -63t-15 -42.5t-21.5 -25.5t-35.5 -13t-42 -4.5t-56.5 -0.5q-250 0 -316 -5.5t-114 -35.5q-11 11 -18 34t-7 35q0 22 14.5 36t45 19.5t54.5 7t66 1.5h250q34 0 48.5 12t14.5 43 q0 90 -29.5 163t-97 121t-163.5 48q-87 0 -155.5 -38.5t-110.5 -103t-63.5 -143.5t-21.5 -166q0 -104 40.5 -197t118.5 -153.5t177 -60.5q71 0 127.5 17t94.5 48t58.5 56t41.5 59q24 -9 43.5 -34t19.5 -44q0 -76 -99 -134.5t-286 -58.5q-98 0 -179 30.5t-135 80.5t-92 115.5 t-54.5 135t-16.5 140.5zM262 1227q0 38 28 61t68 23q45 0 72 -22.5t27 -61.5q0 -38 -28.5 -59t-70.5 -21q-38 0 -67 22t-29 58zM612 1227q0 38 28.5 61t68.5 23q45 0 71.5 -22.5t26.5 -61.5q0 -38 -28 -59t-70 -21q-38 0 -67.5 22t-29.5 58z" />
<glyph unicode="&#x452;" horiz-adv-x="1204" d="M-4 1180q0 24 22 44.5t56 20.5h174v37q0 41 -23 72.5t-67 31.5h-56v54h144q70 0 105.5 -36t35.5 -101v-58h275q-4 -23 -7 -34.5t-11.5 -28t-24 -24t-39.5 -7.5h-193v-328q46 75 136 124.5t206 49.5q172 0 264 -84.5t92 -250.5v-496q0 -167 -21 -265.5t-58.5 -136.5 t-96.5 -38q-46 0 -65 20t-19 41q32 0 54.5 18.5t35.5 47.5t20 78t9 97t2 119v467q0 143 -63 213t-174 70q-100 0 -175 -57t-111 -144t-36 -188v-352q0 -48 26.5 -75.5t59.5 -27.5h35v-53h-406v53h45q55 0 78 28t23 62v1008h-154q-31 0 -90 -18q-8 31 -8 47z" />
<glyph unicode="&#x453;" horiz-adv-x="774" d="M-16 0v53h77q86 0 86 92v678q0 90 -86 90h-73v54h215q56 0 132 4.5t118 5.5q29 0 49 -0.5t57.5 -4t64 -10.5t58.5 -20.5t52 -33t34 -49.5t14 -68q0 -83 -32 -119.5t-93 -36.5q0 151 -45 209.5t-176 58.5q-96 0 -124.5 -15t-28.5 -71v-651q0 -113 127 -113h86v-53h-512z M236 1145q0 7 9.5 18.5t31 31t26.5 24.5q44 58 64 93t36 89q1 4 4 15.5t4 14t4.5 9.5t7.5 8.5t10.5 3.5t15.5 2q26 0 48.5 -27t24.5 -43q0 -44 -48.5 -105.5t-111 -105t-100.5 -43.5q-18 0 -22 2.5t-4 12.5z" />
<glyph unicode="&#x454;" horiz-adv-x="1026" d="M59 477q0 73 16.5 146t54.5 144.5t93.5 126t141 88.5t188.5 34t178 -17t112.5 -39.5t59 -54.5t25.5 -52.5t4 -43.5q0 -64 -38.5 -100.5t-86.5 -36.5q0 134 -69 192t-197 58q-78 0 -143.5 -33t-107.5 -87t-66.5 -119.5t-26.5 -133.5q0 -14 34 -14h367q131 0 131 -66 q0 -48 -29 -71t-51 -23q0 42 -67.5 52.5t-241.5 10.5h-143q9 -156 104.5 -262t235.5 -106q58 0 107.5 13.5t83 33t62.5 48.5t45.5 53t32.5 54q23 0 43.5 -29t20.5 -63q0 -77 -104.5 -141t-290.5 -64q-98 0 -179 30.5t-135.5 80.5t-92 115.5t-54.5 135t-17 140.5z" />
<glyph unicode="&#x455;" horiz-adv-x="940" d="M82 156q0 25 10.5 44t25.5 27.5t30 14t26 6.5h10q2 -8 7.5 -21t28 -45.5t52.5 -58t85 -46t122 -20.5q117 0 181.5 46t64.5 102q0 19 -1.5 30t-8.5 32t-24.5 38.5t-46 39t-78 43t-115.5 42.5q-183 57 -268 132.5t-85 182.5t102 186t281 79q178 0 261 -58.5t83 -148.5 q0 -38 -13.5 -64.5t-33.5 -37.5t-35 -15t-26 -4q0 238 -236 238q-105 0 -176.5 -42t-71.5 -114q0 -52 34.5 -92.5t90 -67.5t123 -51t134.5 -51t122.5 -59.5t90 -83.5t34.5 -117q0 -133 -109 -206t-284 -73q-101 0 -191 27t-143 71.5t-53 94.5z" />
<glyph unicode="&#x456;" horiz-adv-x="526" d="M39 -2v53h49q42 0 76.5 28.5t34.5 84.5v641q0 106 -105 106h-49v54h141q83 0 115.5 -40t32.5 -120v-641q0 -53 35 -83t75 -30h50v-53h-455zM162 1303q0 40 28 63t70 23q45 0 72.5 -23t27.5 -63q0 -38 -28.5 -60t-71.5 -22q-40 0 -69 22.5t-29 59.5z" />
<glyph unicode="&#x457;" horiz-adv-x="557" d="M-4 1227q0 38 28 61t68 23q45 0 71.5 -22.5t26.5 -61.5q0 -38 -28 -59t-70 -21q-38 0 -67 22t-29 58zM68 -2v53h49q42 0 76 28.5t34 84.5v641q0 106 -104 106h-49v54h141q83 0 115 -39.5t32 -120.5v-641q0 -53 35.5 -83t75.5 -30h49v-53h-454zM346 1227q0 38 28 61t68 23 q45 0 72 -22.5t27 -61.5q0 -38 -28.5 -59t-70.5 -21q-38 0 -67 22t-29 58z" />
<glyph unicode="&#x458;" horiz-adv-x="598" d="M-33 -287q0 41 27 63.5t61 22.5q0 -19 4.5 -40t15.5 -46t35 -41t58 -16q129 0 129 278v830q0 25 -1.5 43t-8 39.5t-17.5 35t-31.5 22.5t-48.5 9h-53v54h154q141 0 141 -166v-873q0 -95 -21 -167t-57.5 -113t-81 -60.5t-96.5 -19.5q-98 0 -153.5 39.5t-55.5 105.5z M260 1305q0 40 29 63t69 23q46 0 73.5 -22.5t27.5 -63.5q0 -39 -28.5 -60.5t-72.5 -21.5q-39 0 -68.5 22.5t-29.5 59.5z" />
<glyph unicode="&#x45b;" horiz-adv-x="1249" d="M16 1180q0 24 22 44.5t56 20.5h174v37q0 41 -23 72.5t-67 31.5h-55v54h143q70 0 106 -36t36 -101v-58h274q-4 -23 -7 -34.5t-11.5 -28t-24 -24t-39.5 -7.5h-192v-328q46 75 136 124.5t206 49.5q172 0 264 -84.5t92 -250.5v-496q0 -43 27 -78t79 -35h41v-53h-145 q-74 0 -107.5 50t-33.5 114v450q0 143 -63 213t-175 70q-100 0 -175 -57t-110.5 -144t-35.5 -188v-352q0 -48 26.5 -75.5t59.5 -27.5h34v-53h-405v53h45q55 0 77.5 28t22.5 62v1008h-153q-31 0 -90 -18q-9 31 -9 47z" />
<glyph unicode="&#x45c;" horiz-adv-x="1089" d="M39 0v53h49q37 0 68.5 27.5t31.5 85.5v1098q0 57 -19.5 89.5t-72.5 32.5h-55v54h117q43 0 75 -11t49.5 -27t27.5 -41t13 -47t3 -50v-693h88q93 0 160 53.5t139 161.5q22 31 22 68q0 26 -20.5 42.5t-50.5 18.5h-41v52h424v-52h-35q-37 0 -73.5 -24t-59 -51t-54.5 -74 q-29 -42 -45.5 -64.5t-46.5 -57t-61.5 -60t-67.5 -45.5q41 -8 109.5 -69t132.5 -177q81 -146 136 -194t118 -48q0 -40 -30.5 -64t-80.5 -24q-107 0 -217 207q-26 49 -49 86.5t-58 82t-70.5 73.5t-82.5 49t-98 20h-88v-317q0 -50 20.5 -80.5t61.5 -30.5h51v-53h-420z M498 1188q0 3 20 23.5t25 23.5q19 23 35 50.5t30 61.5t21.5 55.5t20 63t16.5 54.5q12 26 30 26q17 0 48.5 -23.5t54.5 -60.5q0 -31 -52.5 -102.5t-121.5 -132t-107 -60.5q-9 0 -14.5 6.5t-5.5 14.5z" />
<glyph unicode="&#x45e;" horiz-adv-x="1077" d="M-12 913q0 29 32 47.5t76 18.5q64 0 98 -32t60 -99q16 -42 111 -328t118 -340q35 -83 90 -96q84 226 163 464.5t79 293.5q0 71 -106 71h-54v54h424v-54h-20q-31 0 -63.5 -31t-55.5 -102q-61 -191 -274 -790q-33 -95 -66 -163.5t-78.5 -131t-104 -95t-128.5 -32.5 q-113 0 -170.5 53t-57.5 119q0 28 11.5 50t28.5 34t33.5 19.5t27.5 9.5l12 2q0 -4 -1 -14t-1 -15q0 -42 10.5 -78t41.5 -65t79 -29q33 0 63.5 20t51.5 46.5t42.5 70t33.5 74.5t28 76t21 59q-52 0 -97 38t-75 103q-43 95 -132 344.5t-98 274.5q-13 34 -22.5 53.5t-27.5 46.5 t-44 40t-59 13zM256 1278q0 34 27.5 67t48.5 33q12 0 12 -8q0 -15 9 -37.5t26.5 -47t52 -41.5t78.5 -17q40 0 74 17.5t53.5 42t33.5 49t19 42.5l6 17q4 -1 10.5 -3t22.5 -11t28.5 -20t23 -31.5t10.5 -45.5q0 -58 -82.5 -96.5t-196.5 -38.5q-110 0 -183 36.5t-73 92.5z" />
<glyph unicode="&#x490;" horiz-adv-x="948" />
<glyph unicode="&#x491;" horiz-adv-x="710" />
<glyph unicode="&#x2000;" horiz-adv-x="974" />
<glyph unicode="&#x2001;" horiz-adv-x="1948" />
<glyph unicode="&#x2002;" horiz-adv-x="974" />
<glyph unicode="&#x2003;" horiz-adv-x="1948" />
<glyph unicode="&#x2004;" horiz-adv-x="649" />
<glyph unicode="&#x2005;" horiz-adv-x="487" />
<glyph unicode="&#x2006;" horiz-adv-x="324" />
<glyph unicode="&#x2007;" horiz-adv-x="324" />
<glyph unicode="&#x2008;" horiz-adv-x="243" />
<glyph unicode="&#x2009;" horiz-adv-x="389" />
<glyph unicode="&#x200a;" horiz-adv-x="108" />
<glyph unicode="&#x2010;" d="M59 399q0 9 1 23t11.5 45.5t28.5 48.5q33 33 140 33h280q34 0 75.5 8.5t66.5 16.5l24 8q0 -6 -1 -16t-8 -35.5t-20 -45t-41.5 -35.5t-66.5 -16h-330q-37 0 -77 -9t-62 -17z" />
<glyph unicode="&#x2011;" d="M59 399q0 9 1 23t11.5 45.5t28.5 48.5q33 33 140 33h280q34 0 75.5 8.5t66.5 16.5l24 8q0 -6 -1 -16t-8 -35.5t-20 -45t-41.5 -35.5t-66.5 -16h-330q-37 0 -77 -9t-62 -17z" />
<glyph unicode="&#x2012;" d="M59 399q0 9 1 23t11.5 45.5t28.5 48.5q33 33 140 33h280q34 0 75.5 8.5t66.5 16.5l24 8q0 -6 -1 -16t-8 -35.5t-20 -45t-41.5 -35.5t-66.5 -16h-330q-37 0 -77 -9t-62 -17z" />
<glyph unicode="&#x2013;" horiz-adv-x="1091" d="M45 438q8 74 39 109q33 31 129 31h680q37 0 79.5 11t66.5 21l24 11q0 -3 -0.5 -8.5t-3 -21.5t-7.5 -30.5t-15.5 -32.5t-25 -30.5t-37.5 -21.5t-52 -9h-709q-40 0 -82 -7.5t-64 -14.5z" />
<glyph unicode="&#x2014;" horiz-adv-x="1591" d="M49 438q8 74 39 109q33 31 127 31h1165q38 0 80.5 11t65.5 21l24 11q0 -3 -0.5 -8.5t-3 -21.5t-7.5 -30.5t-15.5 -32.5t-25 -30.5t-37.5 -21.5t-52 -9h-1194q-39 0 -80.5 -7.5t-63.5 -14.5z" />
<glyph unicode="&#x2018;" horiz-adv-x="313" d="M29 1161q0 52 21 109t65.5 101t99.5 44q17 0 30.5 -11.5t18.5 -22.5l4 -11q-29 0 -65.5 -24.5t-36.5 -69.5q0 -38 35 -57q26 -19 40.5 -39t14.5 -50q0 -38 -28 -67t-83 -29q-61 0 -88.5 38.5t-27.5 88.5z" />
<glyph unicode="&#x2019;" horiz-adv-x="329" d="M59 1083q29 0 66 26t37 71q0 34 -35 57q-17 13 -27 22.5t-19 27t-9 38.5q0 37 27.5 63.5t82.5 26.5q60 0 89.5 -39t29.5 -88q0 -39 -11.5 -80.5t-33 -80t-59 -63t-84.5 -24.5q-17 0 -30.5 11t-18.5 21z" />
<glyph unicode="&#x201a;" horiz-adv-x="337" d="M53 -145q29 0 69 35.5t40 82.5q0 36 -33 54q-18 11 -29.5 20.5t-21.5 29.5t-10 46q0 39 30.5 68.5t89.5 29.5q63 0 93 -38.5t30 -94.5q0 -41 -12.5 -87.5t-35.5 -91t-63 -73.5t-89 -29q-19 0 -33.5 12t-19.5 24z" />
<glyph unicode="&#x201c;" horiz-adv-x="733" d="M96 1167q0 39 11 80.5t32.5 80t59 63t84.5 24.5q17 0 30.5 -11.5t18.5 -22.5l4 -11q-29 0 -64.5 -24.5t-35.5 -69.5q0 -37 32 -57q56 -41 56 -89q0 -39 -27.5 -64.5t-83.5 -25.5q-61 0 -89 38.5t-28 88.5zM391 1167q0 39 11 80.5t32.5 80t59 63t84.5 24.5 q17 0 30.5 -11.5t17.5 -22.5l5 -11q-29 0 -65 -24.5t-36 -69.5q0 -39 33 -57q26 -19 40.5 -39t14.5 -50q0 -39 -27 -64.5t-83 -25.5q-61 0 -89 38.5t-28 88.5z" />
<glyph unicode="&#x201d;" horiz-adv-x="724" d="M96 1085q29 0 65 25t36 70q0 39 -33 57q-17 13 -27 22.5t-19 27t-9 38.5q0 39 27 64.5t83 25.5q61 0 89 -38.5t28 -88.5q0 -54 -18 -108t-62.5 -97t-105.5 -43q-17 0 -30.5 11t-18.5 23zM391 1085q29 0 65 25t36 70q0 36 -33 57q-17 13 -27 22t-19.5 27t-9.5 39 q0 39 27.5 64.5t83.5 25.5q61 0 89 -38.5t28 -88.5q0 -39 -11 -80.5t-32.5 -80t-59 -63t-84.5 -24.5q-17 0 -30.5 11t-17.5 23z" />
<glyph unicode="&#x201e;" horiz-adv-x="714" d="M55 -145q29 0 68 35.5t39 82.5q0 36 -33 54q-18 12 -28.5 21t-20.5 29t-10 46q0 40 30 69t90 29q62 0 92.5 -39t30.5 -94q0 -40 -13 -87t-36.5 -91.5t-63.5 -73.5t-89 -29q-18 0 -32 12t-19 24zM385 -145q28 0 67.5 35.5t39.5 82.5q0 36 -33 54q-19 12 -30 21t-21.5 29 t-10.5 46q0 39 31.5 68.5t91.5 29.5q62 0 92.5 -39t30.5 -94q0 -56 -21 -118t-69.5 -112.5t-112.5 -50.5q-19 0 -33 12t-18 24z" />
<glyph unicode="&#x2022;" horiz-adv-x="632" d="M57 588q0 111 75 178.5t187 67.5q114 0 184 -67t70 -183t-71 -183t-189 -67q-113 0 -184.5 65.5t-71.5 188.5z" />
<glyph unicode="&#x2026;" horiz-adv-x="1619" d="M121 98q0 54 39.5 85.5t95.5 31.5q63 0 100 -31t37 -86q0 -51 -38.5 -79.5t-98.5 -28.5q-55 0 -95 29.5t-40 78.5zM662 98q0 53 40 85t95 32q65 0 101 -31t36 -86q0 -51 -37.5 -79.5t-99.5 -28.5q-54 0 -94.5 29.5t-40.5 78.5zM1204 98q0 53 40 85t95 32q65 0 102.5 -31 t37.5 -86q0 -51 -39 -79.5t-101 -28.5q-54 0 -94.5 29.5t-40.5 78.5z" />
<glyph unicode="&#x202f;" horiz-adv-x="389" />
<glyph unicode="&#x2039;" horiz-adv-x="968" d="M-16 537q0 10 7.5 16t28.5 16q1 0 3.5 1t3.5 1l766 408q20 -17 33.5 -40t13.5 -38q0 -23 -22.5 -48t-65.5 -46l-555 -275l565 -284q33 -17 48 -46t15 -52q0 -44 -32 -76l-736 403q-6 5 -26.5 14t-33.5 19.5t-13 26.5z" />
<glyph unicode="&#x203a;" horiz-adv-x="970" d="M106 901q0 15 14 38t34 40l766 -408q1 0 3 -1t3 -1q22 -10 29.5 -16t7.5 -16q0 -16 -13.5 -26.5t-34 -19.5t-26.5 -14l-735 -403q-33 33 -33 76q0 23 15 52t48 46l566 284l-555 275q-43 21 -66 46t-23 48z" />
<glyph unicode="&#x205f;" horiz-adv-x="487" />
<glyph unicode="&#x20ac;" horiz-adv-x="1429" d="M-12 424q8 78 41 111q32 30 127 30h88q-6 69 -6 94q0 49 4 78h-86q-39 0 -81 -6t-65 -12l-22 -6q8 75 41 110q33 31 127 31h102q21 114 70.5 206t111 149.5t137 96.5t145.5 54.5t140 15.5q86 0 164 -15.5t143.5 -46t104.5 -83.5t39 -121q0 -49 -14 -84t-36 -50.5 t-39.5 -21.5t-31.5 -6q0 75 -20.5 132.5t-52.5 91.5t-77.5 55.5t-90 29t-95.5 7.5q-160 0 -283 -120t-151 -290h375q46 0 93 11t71 21l24 11q0 -7 -1 -17.5t-10 -38t-24.5 -48.5t-48.5 -38.5t-78 -17.5h-420q-4 -46 -4 -73q0 -41 7 -99h391q44 0 91 12.5t72 24.5l25 12 q0 -7 -1 -18t-10 -39.5t-24.5 -50t-48.5 -39.5t-78 -18h-395q38 -177 156 -274t256 -97q159 0 263.5 73t104.5 164q45 0 79 -27.5t34 -76.5q0 -74 -72 -130.5t-186.5 -84t-249.5 -27.5q-64 0 -127.5 15t-130.5 51t-122.5 90t-101 137.5t-69.5 186.5h-106q-39 0 -81 -6.5 t-65 -12.5z" />
<glyph unicode="&#x2122;" horiz-adv-x="1765" d="M94 1288q0 41 29.5 67.5t81.5 26.5q46 0 97 -1t91 -1q137 0 217 2q28 0 44 -16t19 -30t3 -29q0 -36 -17.5 -73.5t-58.5 -37.5q0 64 -26.5 86.5t-92.5 22.5q-24 0 -24 -50v-446q0 -25 16 -46.5t37 -21.5h43v-69h-330v69h41q26 0 42 22t16 46v442q0 33 -4.5 43.5 t-20.5 10.5q-54 0 -94.5 -26t-40.5 -73q-3 1 -7.5 2t-16 7t-20.5 14.5t-16.5 24t-7.5 34.5zM639 672v69h39q14 0 31 16t18 31l51 486q-4 35 -37 35h-36v67h126q61 0 90 -19t52 -75l172 -412q31 72 85 211t73 187q46 108 149 108h141v-67h-37q-28 0 -40.5 -13.5t-12.5 -31.5 q17 -138 49 -453q2 -26 18 -48t44 -22h35v-69h-281v69h25q13 0 21.5 13t8.5 26l-43 373l-172 -428q-10 -26 -37.5 -41.5t-54.5 -15.5q-24 0 -40.5 7t-16.5 17q10 10 10 27q0 15 -4.5 31.5t-18.5 51t-31.5 74t-53.5 124.5t-74 178q-32 -294 -35 -398q0 -15 9.5 -27t21.5 -12 h22v-69h-266z" />
<glyph unicode="&#x25fc;" horiz-adv-x="993" d="M0 0v993h993v-993h-993z" />
</font>
</defs>
</svg>
